<?xml version="1.0" standalone="no"?>
<!DOCTYPE svg PUBLIC "-//W3C//DTD SVG 1.1//EN" "http://www.w3.org/Graphics/SVG/1.1/DTD/svg11.dtd" >
<svg xmlns="http://www.w3.org/2000/svg">
<metadata></metadata>
<defs>
<font id="lg_smartlight" horiz-adv-x="1153" >
<font-face units-per-em="2048" ascent="1466" descent="-582" />
<missing-glyph horiz-adv-x="444" />
<glyph unicode="&#xfb01;" horiz-adv-x="1050" d="M51 850v88h137v98q0 104 34 176t89.5 117t129 64.5t155.5 19.5q102 0 180 -14.5t135 -34.5v-156h-102v88q-20 4 -45 11q-61 16 -168 16q-152 0 -229.5 -76t-77.5 -235v-74h622v-938h-100v850h-522v-850h-101v850h-137z" />
<glyph unicode="&#xfb02;" horiz-adv-x="1064" d="M51 850v88h137v98q0 104 34 176t89.5 117t129 64.5t155.5 19.5q106 0 182 -14.5t133 -34.5v-1157q0 -84 19.5 -106.5t66.5 -22.5v-84q-4 -2 -14 -2q-6 -2 -31 -2q-80 0 -110.5 55t-30.5 162v1089l-47 11q-61 16 -168 16q-152 0 -229.5 -76t-77.5 -235v-74h358v-88h-358 v-850h-101v850h-137z" />
<glyph horiz-adv-x="0" />
<glyph unicode="&#xd;" horiz-adv-x="454" />
<glyph horiz-adv-x="0" />
<glyph horiz-adv-x="0" />
<glyph unicode=" "  horiz-adv-x="444" />
<glyph unicode="&#x09;" horiz-adv-x="444" />
<glyph unicode="&#xa0;" horiz-adv-x="444" />
<glyph unicode="!" horiz-adv-x="407" d="M139 0v133h129v-133h-129zM156 293v1057h100v-1057h-100z" />
<glyph unicode="&#x22;" horiz-adv-x="667" d="M127 1407h119l-23 -410h-74zM420 1407h119l-23 -410h-74z" />
<glyph unicode="#" horiz-adv-x="1056" d="M127 317v89h172v278h-172v88h172v152h100v-152h256v152h99v-152h174v-88h-174v-278h174v-89h-174v-151h-99v151h-256v-151h-100v151h-172zM399 406h256v278h-256v-278z" />
<glyph unicode="$" horiz-adv-x="1056" d="M102 59l39 91q90 -39 172 -62q80 -18 174 -18v569q-53 20 -104 43q-57 27 -100 53q-78 45 -126 112.5t-48 188.5q0 88 38.5 152.5t103 104.5t146.5 59q45 10 90 14v178h101v-174q109 -2 186 -18q86 -18 162 -54l-37 -88q-68 31 -145 50q-70 18 -166 20v-563 q45 -18 86 -35q61 -23 108 -49q80 -45 132.5 -113.5t52.5 -191.5q0 -90 -36 -157t-99.5 -110t-147.5 -63q-47 -10 -96 -16v-164h-101v159q-106 2 -202 23q-106 23 -183 59zM215 1040q0 -66 25.5 -122t109.5 -101q41 -23 94 -45q20 -8 43 -18v522q-104 -14 -174 -57 q-98 -63 -98 -179zM588 74q112 12 182 61q92 68 92 180q0 63 -26.5 123t-110.5 103q-41 23 -100 45q-18 6 -37 12v-524z" />
<glyph unicode="%" horiz-adv-x="1513" d="M102 1016q0 166 60.5 264t193.5 98q127 0 189.5 -98t62.5 -264q0 -160 -62.5 -258.5t-189.5 -98.5q-133 0 -193.5 98.5t-60.5 258.5zM199 1016q0 -133 37.5 -205t119.5 -72q80 0 117 72t37 205t-37 208.5t-117 75.5q-82 0 -119.5 -75.5t-37.5 -208.5zM211 -57l979 1480 h123l-981 -1480h-121zM915 344q0 166 61.5 263.5t194.5 97.5q127 0 188.5 -97.5t61.5 -263.5q0 -160 -61.5 -258t-188.5 -98q-133 0 -194.5 98t-61.5 258zM1014 344q0 -133 38 -205.5t119 -72.5q82 0 118 72.5t36 205.5t-36 209t-118 76t-119.5 -76t-37.5 -209z" />
<glyph unicode="&#x26;" horiz-adv-x="1216" d="M78 313q0 162 94 267q78 84 201 149q-53 66 -88 125q-51 88 -52 203q0 139 94.5 226t262.5 87q139 0 229 -67.5t90 -200.5q0 -78 -30.5 -136.5t-87 -106.5t-134.5 -87q-59 -31 -127 -63l359 -390q20 27 41 58q57 88 108 186l86 -45q-59 -106 -123 -205q-23 -35 -47 -65 l228 -248h-138l-157 170l-31 -31q-78 -74 -174 -118t-223 -44q-80 0 -148.5 16.5t-121 55.5t-82 103.5t-29.5 160.5zM180 317q0 -129 76 -188t203 -59q104 0 188 41t154 108q10 10 22 21l-389 424q-119 -66 -182 -136q-72 -84 -72 -211zM338 1061q0 -51 9 -90t31.5 -77 t57.5 -83q16 -14 33 -35q62 31 115 58q68 35 117 70.5t76.5 81.5t27.5 106q0 84 -55.5 137t-157.5 53q-133 0 -193.5 -60.5t-60.5 -160.5z" />
<glyph unicode="'" horiz-adv-x="352" d="M117 1407h119l-23 -410h-74z" />
<glyph unicode="(" horiz-adv-x="628" d="M84 543q0 176 30.5 311t84 244.5t126 202t154.5 182.5l74 -62q-88 -92 -155.5 -182t-113.5 -192.5t-71 -224.5t-25 -279q0 -164 26 -286t72 -224.5t114.5 -191.5t152.5 -187l-74 -62q-82 92 -154.5 184.5t-126 201t-84 245t-30.5 320.5z" />
<glyph unicode=")" horiz-adv-x="628" d="M76 -346q82 98 149.5 187t115.5 191.5t72.5 224.5t24.5 286q0 158 -23.5 279.5t-70.5 224t-114.5 192.5t-153.5 182l74 62q82 -90 153.5 -182.5t124.5 -202t84 -244.5t31 -311q0 -184 -31 -320.5t-84 -245t-125 -200.5t-153 -185z" />
<glyph unicode="*" horiz-adv-x="874" d="M90 1116l29 94l278 -96l-8 293h98l-8 -293l277 96l32 -94l-282 -84l186 -239l-80 -58l-174 250l-172 -250l-80 58l187 239z" />
<glyph unicode="+" d="M176 500v90h350v334h99v-334h352v-90h-352v-334h-99v334h-350z" />
<glyph unicode="," horiz-adv-x="292" d="M6 -238q39 84 66.5 171t27.5 202h105q-2 -131 -35 -226t-86 -188z" />
<glyph unicode="-" horiz-adv-x="747" d="M129 432v90h489v-90h-489z" />
<glyph unicode="." horiz-adv-x="296" d="M82 0v135h133v-135h-133z" />
<glyph unicode="/" horiz-adv-x="694" d="M29 -88l536 1479h101l-539 -1479h-98z" />
<glyph unicode="0" d="M123 666q0 131 19.5 257t71.5 226t142 160.5t230 60.5q133 0 219 -60.5t136 -159.5t69.5 -222t19.5 -246q0 -133 -21.5 -261t-73.5 -225.5t-143.5 -158t-230.5 -60.5q-137 0 -223 64.5t-134 164t-64.5 222.5t-16.5 238zM229 666q0 -131 16.5 -240t55.5 -188.5 t103.5 -123.5t156.5 -44q106 0 176 45t111 127t58.5 194.5t17.5 245.5q0 102 -13.5 208.5t-50.5 193.5t-102.5 141.5t-169.5 54.5q-104 -2 -173 -49t-111 -128t-58.5 -192.5t-16.5 -244.5z" />
<glyph unicode="1" d="M231 1153l363 197h80v-1350h-103v1233l-299 -162z" />
<glyph unicode="2" d="M158 1270q74 39 163 69.5t209 30.5q201 0 318 -95t117 -284q0 -66 -21.5 -130t-63.5 -131.5t-102.5 -143.5t-140.5 -162l-299 -334h657v-90h-800v78l356 397q84 94 142.5 168t95 133.5t53 110.5t16.5 102q0 147 -87 219t-241 72q-106 0 -188 -29.5t-139 -62.5z" />
<glyph unicode="3" d="M127 125l63 72q23 -16 56 -39t78 -42.5t102 -32.5t129 -13q172 0 267.5 76.5t95.5 218.5q0 145 -101.5 221t-288.5 76h-47v90h49q172 0 255 69.5t83 198.5q0 133 -81.5 196.5t-227.5 63.5q-59 0 -110.5 -14.5t-93.5 -35t-74.5 -41t-51.5 -34.5l-51 74q18 16 54 38.5 t86.5 46t110.5 40t130 16.5q207 0 311.5 -90t104.5 -258q0 -127 -62.5 -202t-158.5 -103q127 -31 198.5 -122t71.5 -230q-2 -186 -123 -287t-346 -101q-92 0 -160.5 15.5t-121 38t-88 48t-58.5 46.5z" />
<glyph unicode="4" d="M82 315v74l614 961h162v-947h174v-88h-174v-315h-100v315h-676zM211 403h547v857h-17z" />
<glyph unicode="5" d="M170 102l61 78q18 -14 48 -32.5t67 -37t84 -29.5t102 -11q172 0 268.5 86t96.5 245q0 168 -102.5 252t-288.5 84h-250v613h672v-93h-572v-430h119q154 0 255 -34.5t162.5 -92t86.5 -135.5t25 -164q-2 -203 -124 -313.5t-348 -110.5q-70 0 -127 13.5t-102 34t-79 41 t-54 36.5z" />
<glyph unicode="6" d="M143 619q0 160 34 298t103.5 239.5t178 159t260.5 57.5q80 0 137 -11.5t102 -27.5l-28 -88q-41 14 -96.5 24t-112.5 10q-129 0 -219 -51t-146.5 -141t-81.5 -211q-14 -63 -20 -135q55 37 127 65q96 39 223 39q197 0 302.5 -105.5t105.5 -303.5q0 -223 -114 -340 t-308 -117q-447 0 -447 639zM250 623q0 -96 13 -194.5t50 -178.5t103.5 -130t175.5 -50q63 0 121.5 22.5t100.5 66.5t66.5 111.5t24.5 161.5q0 174 -86 249t-231 75q-70 0 -128.5 -15.5t-104.5 -38t-79 -48.5q-16 -12 -26 -21v-10z" />
<glyph unicode="7" d="M123 1257v93h909v-76l-504 -1274h-110l506 1257h-801z" />
<glyph unicode="8" d="M125 365q0 125 66.5 207.5t173.5 123.5q-100 45 -152.5 119t-52.5 195q0 172 108.5 266t311.5 94q199 0 305 -94t106 -266q0 -113 -51 -193t-149 -121q109 -41 174 -119.5t65 -211.5q0 -182 -117.5 -285t-332.5 -103t-335 102.5t-120 285.5zM231 367q0 -147 90.5 -222 t258.5 -75q160 0 252 75t92 222q0 139 -92.5 209.5t-251.5 70.5q-168 0 -258.5 -70.5t-90.5 -209.5zM266 1004q0 -127 83 -196t231 -69q145 0 225 69t80 196q0 139 -80 207.5t-225 68.5q-147 0 -230.5 -68.5t-83.5 -207.5z" />
<glyph unicode="9" d="M143 913q0 223 114 340t308 117q447 0 447 -639q0 -160 -34 -298t-103.5 -239.5t-178 -159t-260.5 -57.5q-80 0 -137 11.5t-102 27.5l28 88q41 -14 96.5 -24t112.5 -10q129 0 219 51t146.5 141t81.5 211q14 63 20 135q-55 -37 -127 -65q-96 -39 -223 -39 q-197 0 -302.5 105.5t-105.5 303.5zM250 918q0 -174 86 -249t231 -75q70 0 128.5 15.5t104.5 38t79 48.5q16 12 26 21v10q0 96 -13 194.5t-50 178.5t-103.5 130t-175.5 50q-63 0 -121.5 -22.5t-100.5 -66.5t-66.5 -111.5t-24.5 -161.5z" />
<glyph unicode=":" horiz-adv-x="296" d="M82 0v135h133v-135h-133zM82 803v135h133v-135h-133z" />
<glyph unicode=";" horiz-adv-x="296" d="M6 -238q39 84 66.5 171t27.5 202h105q-2 -131 -35 -226t-86 -188zM82 803v135h133v-135h-133z" />
<glyph unicode="&#x3c;" d="M240 543l567 569l65 -65l-503 -504l503 -504l-65 -64z" />
<glyph unicode="=" d="M176 385v92h801v-92h-801zM176 612v90h801v-90h-801z" />
<glyph unicode="&#x3e;" d="M238 40l503 504l-503 504l65 64l567 -568l-567 -569z" />
<glyph unicode="?" horiz-adv-x="800" d="M10 1276q66 39 144.5 66.5t185.5 27.5q172 0 268.5 -89t96.5 -237q0 -66 -24 -120t-61.5 -104t-80.5 -99t-81 -102.5t-62.5 -113t-24.5 -132.5v-80h-103v80q0 84 24.5 151.5t61.5 124t80 105.5t80 96t60.5 93t23.5 99q0 102 -68.5 170t-189.5 68q-94 0 -164 -26.5 t-121 -59.5zM260 0v133h129v-133h-129z" />
<glyph unicode="@" horiz-adv-x="2021" d="M96 293q0 262 77 462.5t217 337t334 207t427 70.5q178 0 323.5 -42t249 -131t158.5 -230.5t55 -335.5q0 -133 -30.5 -250t-91 -205t-154.5 -137t-221 -49q-113 0 -183 55q-51 39 -67 119q-10 -12 -19 -25q-37 -47 -85 -81.5t-108 -57.5t-132 -23q-74 0 -126 28t-85 77 t-50.5 114.5t-17.5 141.5q0 311 147.5 467t415.5 156q70 0 139.5 -15.5t123.5 -40.5l-99 -502q-8 -35 -13 -70.5t-5 -70.5q0 -78 43 -131t129 -53q102 0 176 43t121 118.5t69.5 176t22.5 219.5q0 176 -49 301t-140.5 201.5t-219.5 110.5t-287 34q-217 0 -393.5 -67.5 t-299 -193.5t-188 -310.5t-65.5 -417.5q0 -176 48 -300t135 -203t212 -115.5t278 -36.5q102 0 187.5 16t177.5 45l27 -80q-92 -31 -190.5 -50.5t-207.5 -19.5q-365 0 -565.5 179.5t-200.5 564.5zM668 350q0 -129 45 -204.5t139 -75.5q66 0 116 18t91 54t78 81q18 27 41 56 l120 569q-26 8 -53 12q-45 12 -117 12q-231 0 -345.5 -140t-114.5 -382z" />
<glyph unicode="A" horiz-adv-x="1214" d="M18 0l496 1350h170l512 -1350h-113l-157 418h-641l-152 -418h-115zM317 508h572l-281 749h-18z" />
<glyph unicode="B" horiz-adv-x="1130" d="M152 0v1350h440q90 0 162.5 -19.5t126 -59.5t83 -101.5t29.5 -149.5q0 -125 -54.5 -198.5t-160.5 -104.5q121 -27 189.5 -106t68.5 -240q0 -102 -35.5 -172t-95 -115t-137.5 -64.5t-162 -19.5h-454zM252 90h336q63 0 124.5 11.5t110.5 43t78 86t29 140.5q0 80 -23.5 135 t-64.5 89t-99.5 48t-132.5 14h-358v-567zM252 748h344q154 0 221.5 67.5t67.5 188.5q0 78 -23.5 127t-64.5 76.5t-98.5 38.5t-123.5 11h-323v-509z" />
<glyph unicode="C" horiz-adv-x="1169" d="M84 674q0 186 42 318t120 217t187.5 123t244.5 38q133 0 235.5 -43t161.5 -113l-63 -63q-57 57 -134 93t-196 36q-262 0 -377 -162t-115 -463q0 -276 105.5 -430.5t349.5 -154.5q150 0 248 24.5t162 46.5l28 -80q-70 -29 -187.5 -56.5t-250.5 -27.5q-293 4 -427 175.5 t-134 521.5z" />
<glyph unicode="D" horiz-adv-x="1220" d="M152 0v1350h354q154 0 271.5 -37t197.5 -118t121 -211t41 -316q0 -193 -50.5 -322t-141.5 -206t-216 -108.5t-276 -31.5h-301zM252 90h197q141 0 249.5 27.5t182 96.5t111.5 184.5t38 295.5q0 295 -129 429t-391 134h-258v-1167z" />
<glyph unicode="E" horiz-adv-x="1048" d="M152 0v1350h770v-93h-670v-516h647v-92h-647v-559h690v-90h-790z" />
<glyph unicode="F" horiz-adv-x="983" d="M152 0v1350h725v-93h-625v-516h579v-92h-579v-649h-100z" />
<glyph unicode="G" horiz-adv-x="1253" d="M84 674q0 186 42 318t120 217t187.5 123t244.5 38q133 0 235.5 -43t161.5 -113l-63 -63q-57 57 -134 93t-196 36q-262 0 -377 -162t-115 -463q0 -276 105.5 -430.5t349.5 -154.5q150 0 246 22q70 16 121 33v444h-369v93h471v-596q-80 -31 -205 -60t-264 -29 q-293 0 -427 173.5t-134 523.5z" />
<glyph unicode="H" horiz-adv-x="1296" d="M152 0v1350h100v-627h790v627h103v-1350h-103v633h-790v-633h-100z" />
<glyph unicode="I" horiz-adv-x="403" d="M152 0v1350h100v-1350h-100z" />
<glyph unicode="J" horiz-adv-x="645" d="M29 10l20 90q25 -10 57.5 -15t69.5 -5q55 0 98 12t72 43t43 84t14 133v998h103v-971q0 -209 -76 -299t-248 -90q-94 0 -153 20z" />
<glyph unicode="K" horiz-adv-x="1071" d="M152 0v1350h100v-629h125l563 629h125l-600 -674l559 -676h-129l-518 633h-125v-633h-100z" />
<glyph unicode="L" horiz-adv-x="915" d="M152 0v1350h100v-1260h670v-90h-770z" />
<glyph unicode="M" horiz-adv-x="1581" d="M152 0v1350h196l447 -1262h16l426 1262h195v-1350h-103v1260h-18l-432 -1260h-152l-459 1260h-16v-1260h-100z" />
<glyph unicode="N" horiz-adv-x="1320" d="M152 0v1350h186l711 -1262h18v1262h102v-1350h-184l-715 1260h-18v-1260h-100z" />
<glyph unicode="O" horiz-adv-x="1257" d="M84 682q0 354 137 521t434 167q145 0 243.5 -47t160 -137t88.5 -221t27 -297q0 -352 -138.5 -521.5t-433.5 -169.5q-147 0 -245.5 48.5t-160 139.5t-87 220t-25.5 297zM190 659q0 -127 17.5 -234.5t63.5 -186t125 -123.5t200 -45q135 0 226 40t145.5 116.5t77 194 t22.5 273.5q0 123 -17.5 230.5t-63.5 186.5t-126 124t-203 45q-133 0 -223 -40t-144 -118t-77 -194.5t-23 -268.5z" />
<glyph unicode="P" horiz-adv-x="1099" d="M152 0v1350h426q440 0 440 -389q0 -203 -111.5 -310.5t-300.5 -107.5h-354v-543h-100zM252 635h340q156 0 239.5 80t83.5 246q0 154 -87 225t-236 71h-340v-622z" />
<glyph unicode="Q" horiz-adv-x="1257" d="M84 682q0 354 137 521t434 167q145 0 243.5 -47t160 -137t88.5 -221t27 -297q0 -352 -140 -523q-51 -63 -127 -102l258 -256l-75 -63l-281 280q-92 -27 -207 -27q-147 0 -245.5 48.5t-160 139.5t-87 220t-25.5 297zM190 659q0 -127 17.5 -234.5t63.5 -186t125 -123.5 t200 -45q135 0 226 40t145.5 116.5t77 194t22.5 273.5q0 123 -17.5 230.5t-63.5 186.5t-126 124t-203 45q-133 0 -223 -40t-144 -118t-77 -194.5t-23 -268.5z" />
<glyph unicode="R" horiz-adv-x="1136" d="M152 0v1350h430q221 0 328.5 -88t107.5 -291q0 -166 -84 -258q-70 -74 -184 -105l297 -608h-113l-287 590h-395v-590h-100zM252 682h344q156 0 235.5 64.5t79.5 224.5q0 141 -72.5 213.5t-242.5 72.5h-344v-575z" />
<glyph unicode="S" horiz-adv-x="1034" d="M84 59l41 91q88 -39 171 -59.5t183 -20.5q180 0 273.5 66.5t93.5 178.5q0 63 -26.5 123t-110.5 103q-43 23 -100.5 45t-120 46.5t-121 50.5t-103.5 52q-78 45 -126 112.5t-48 188.5q0 88 39 152.5t103.5 104.5t147.5 58.5t173 18.5q119 0 205 -18.5t160 -53.5l-37 -88 q-51 23 -136.5 46.5t-191.5 23.5q-160 0 -258 -62.5t-98 -177.5q0 -66 25.5 -122t109.5 -99q41 -23 95 -45t112.5 -43.5t118 -46.5t108.5 -51q80 -45 132 -113.5t52 -191.5q0 -90 -36.5 -157t-100 -110t-147.5 -63.5t-181 -20.5q-113 0 -219 23t-182 59z" />
<glyph unicode="T" horiz-adv-x="970" d="M-4 1257v93h981v-93h-440v-1257h-103v1257h-438z" />
<glyph unicode="U" horiz-adv-x="1245" d="M139 500v850h103v-885q0 -92 18.5 -166t61.5 -125t112.5 -77.5t169.5 -26.5q113 0 189.5 22.5t123 73.5t67 134t20.5 202v848h100v-865q0 -270 -122 -389t-376 -119q-248 0 -357.5 123t-109.5 400z" />
<glyph unicode="V" horiz-adv-x="1103" d="M18 1350h113l422 -1262h16l408 1262h110l-444 -1350h-164z" />
<glyph unicode="W" horiz-adv-x="1884" d="M29 1350h114l363 -1262h18l328 1262h182l346 -1262h17l346 1262h112l-382 -1350h-173l-346 1260h-18l-332 -1260h-174z" />
<glyph unicode="X" horiz-adv-x="1167" d="M39 0l436 694l-412 656h125l371 -611h39l381 611h113l-406 -656l440 -694h-120l-404 649h-41l-395 -649h-127z" />
<glyph unicode="Y" horiz-adv-x="1062" d="M-4 1350h131l397 -641h17l403 641h123l-483 -758v-592h-103v590z" />
<glyph unicode="Z" horiz-adv-x="1060" d="M39 0v76l821 1181h-770v93h897v-76l-819 -1184h817v-90h-946z" />
<glyph unicode="[" horiz-adv-x="665" d="M139 -383v1856h420v-89h-319v-1679h319v-88h-420z" />
<glyph unicode="\" horiz-adv-x="694" d="M29 1391h100l537 -1479h-99z" />
<glyph unicode="]" horiz-adv-x="665" d="M106 -295h320v1679h-320v89h420v-1856h-420v88z" />
<glyph unicode="^" horiz-adv-x="897" d="M84 633l274 717h172l281 -717h-102l-254 653h-19l-250 -653h-102z" />
<glyph unicode="_" horiz-adv-x="860" d="M84 -88h692v-90h-692v90z" />
<glyph unicode="`" horiz-adv-x="1056" d="M344 1395h115l246 -324h-109z" />
<glyph unicode="a" horiz-adv-x="929" d="M80 262q0 82 28.5 135.5t81 84t122 43t153.5 12.5h63q29 0 55.5 -2.5t54.5 -4.5t60 -4v49q0 86 -10 142.5t-36.5 91.5t-75 49t-127.5 14q-82 0 -166 -24.5t-129 -46.5l-31 80q70 31 159 55.5t195 24.5q90 0 152.5 -19.5t100.5 -66t53.5 -118t15.5 -177.5v-365 q0 -80 19.5 -108.5t66.5 -28.5v-84q-10 -2 -35 -2q-66 0 -95.5 29.5t-41.5 80.5q-51 -45 -136 -85t-212 -40q-154 0 -219.5 79t-65.5 206zM184 266q0 -106 51.5 -153t165.5 -47q84 0 163 38.5t134 83.5v246q-61 8 -120.5 11.5t-131.5 3.5q-147 0 -204.5 -45.5t-57.5 -137.5z " />
<glyph unicode="b" horiz-adv-x="995" d="M139 0v1401l101 12v-545q61 41 122 64q72 29 166 29q199 0 291 -124t92 -360q0 -111 -24.5 -202t-78.5 -157.5t-138 -103.5t-205 -37q-39 0 -71 3.5t-62.5 12.5t-61.5 19q-23 10 -47 21l-8 -33h-76zM240 133q43 -27 92 -45q60 -22 127 -22h6q174 0 258 100t84 319 q0 70 -12.5 138.5t-45 124t-92 90t-151.5 34.5q-96 0 -164 -38q-53 -29 -102 -66v-635z" />
<glyph unicode="c" horiz-adv-x="845" d="M84 455q0 248 117.5 377t339.5 129q78 0 149.5 -28t114.5 -77l-64 -63q-37 35 -88 57t-116 22q-166 0 -257.5 -105t-91.5 -321q0 -84 17.5 -153.5t57.5 -119.5t102.5 -78.5t150.5 -28.5q80 0 142.5 17t109.5 36l31 -72q-20 -12 -52 -24.5t-71 -21.5t-81 -16.5t-85 -7.5 q-223 0 -324.5 127t-101.5 351z" />
<glyph unicode="d" horiz-adv-x="993" d="M82 461q0 109 24.5 201t79 158.5t138.5 103.5t204 37q39 0 71 -4.5t61.5 -12.5t60.5 -20q16 -8 33 -15v492l100 12v-1180l16 -233h-92l-14 76q-68 -45 -133 -72q-72 -27 -166 -27q-199 0 -291 124t-92 360zM186 453q0 -70 12.5 -138.5t45 -124t92 -90t151.5 -34.5 q96 0 162 36q55 31 105 66v635q-41 27 -92 47q-60 22 -128 22h-6q-174 0 -258 -100t-84 -319z" />
<glyph unicode="e" horiz-adv-x="942" d="M84 475q0 248 102.5 367t311.5 119q109 0 179.5 -35t110 -95.5t55 -144.5t15.5 -182v-62h-670q0 -106 21 -176q23 -76 64.5 -120t101 -62t139.5 -18q94 0 174 26.5t121 46.5l37 -76q-23 -12 -60.5 -27.5t-83 -27.5t-97.5 -21.5t-103 -9.5q-119 0 -199 30t-128 91.5 t-69.5 155.5t-21.5 221zM188 530h566q0 100 -18.5 166t-53.5 106t-81 55t-101 15q-174 0 -242 -100q-59 -82 -70 -242z" />
<glyph unicode="f" horiz-adv-x="632" d="M51 850v88h137v121q0 104 22.5 172.5t63.5 108.5t97.5 56.5t128.5 16.5q45 0 94 -10t88 -21l-27 -84q-41 10 -80.5 17.5t-85.5 7.5q-109 0 -154.5 -64.5t-45.5 -224.5v-96h358v-88h-358v-850h-101v850h-137z" />
<glyph unicode="g" horiz-adv-x="997" d="M84 461q0 109 24.5 201t79 158.5t138.5 103.5t204 37q78 0 133.5 -17.5t108.5 -42.5l10 37h76v-993q0 -111 -28.5 -187.5t-81 -125t-126 -69t-165.5 -20.5q-84 0 -156 11.5t-123 27.5l25 88q49 -14 112.5 -26.5t145.5 -12.5q63 0 117.5 13.5t94.5 49.5t62.5 95t22.5 154 v129q-63 -43 -130 -69t-159 -26q-201 0 -293 124t-92 360zM188 453q0 -70 12.5 -138.5t45.5 -124t92 -90t151 -34.5q78 0 141.5 29.5t127.5 74.5v633q-43 27 -99.5 48t-128.5 21q-174 0 -258 -100t-84 -319z" />
<glyph unicode="h" horiz-adv-x="1007" d="M139 0v1401l101 12v-555q57 37 125 64q106 39 204 39q96 0 155.5 -24t94.5 -70t47.5 -115.5t12.5 -163.5v-588h-101v567q0 72 -7 128.5t-31.5 95t-67.5 60t-117 21.5q-49 0 -101.5 -13t-101.5 -35.5t-92 -51.5q-12 -6 -20 -16v-756h-101z" />
<glyph unicode="i" horiz-adv-x="378" d="M137 1171v140h103v-140h-103zM139 0v938h101v-938h-101z" />
<glyph unicode="j" horiz-adv-x="378" d="M-61 -369h10q59 0 97 11.5t59.5 39t27.5 78t6 127.5v1051h101v-1004q0 -92 -5.5 -163.5t-32 -122.5t-84 -78t-157.5 -27h-22v88zM137 1171v140h103v-140h-103z" />
<glyph unicode="k" horiz-adv-x="917" d="M139 0v1401l101 12v-858h106l404 383h124l-442 -428l457 -510h-125l-418 469h-106v-469h-101z" />
<glyph unicode="l" horiz-adv-x="393" d="M139 207v1194l101 12v-1206q0 -84 18 -106.5t68 -22.5v-84q-4 -2 -15 -2q-8 -2 -32 -2q-80 0 -110 55t-30 162z" />
<glyph unicode="m" horiz-adv-x="1556" d="M125 938h94l6 -84q59 37 127 68q100 39 197 39q88 0 144.5 -25t86.5 -72q10 -12 17 -28q68 51 151 86q98 39 195 39q88 0 144 -25t88 -71t43.5 -116.5t11.5 -160.5v-588h-101v567q0 72 -8 128.5t-28.5 95t-60.5 60t-106 21.5q-45 0 -94 -13t-96 -34.5t-86 -52.5 q-16 -10 -29 -20l2 -4q10 -70 11 -160v-588h-99v567q0 72 -8 128.5t-29.5 95t-61.5 60t-104 21.5q-47 0 -95 -13t-95 -34.5t-86 -52.5l-16 -10v-762h-101v690z" />
<glyph unicode="n" horiz-adv-x="1007" d="M125 938h94l6 -86q66 39 140 70q106 39 204 39q96 0 155.5 -24t94.5 -70t47.5 -115.5t12.5 -163.5v-588h-101v567q0 72 -7 128.5t-31.5 95t-67.5 60t-117 21.5q-49 0 -101.5 -13t-101.5 -35.5t-92 -51.5q-12 -6 -20 -16v-756h-101v690z" />
<glyph unicode="o" horiz-adv-x="1011" d="M84 473q0 248 107.5 368t336.5 120q113 0 190 -35t123 -97.5t66.5 -155.5t20.5 -210q0 -248 -109 -367t-338 -119q-113 0 -189.5 34t-122.5 97.5t-65.5 154.5t-19.5 210zM188 457q0 -82 12.5 -153t45.5 -124t90 -83.5t145 -30.5q98 0 164 26.5t106 78.5t56 130t16 180 q0 80 -12 150.5t-46 124t-91.5 85t-145.5 31.5q-98 0 -163.5 -26.5t-104.5 -79.5t-55.5 -131t-16.5 -178z" />
<glyph unicode="p" horiz-adv-x="995" d="M125 938h90l14 -76q66 45 133 70q72 29 166 29q199 0 291 -124t92 -360q0 -111 -24.5 -202t-78.5 -157.5t-138 -103.5t-205 -37q-39 0 -71 3.5t-62.5 12.5t-61.5 19q-14 8 -30 15v-471l-101 -13v1168zM240 133q43 -27 92 -45q60 -22 127 -22h6q174 0 258 100t84 319 q0 70 -12.5 138.5t-45 124t-92 90t-151.5 34.5q-96 0 -164 -38q-53 -29 -102 -66v-635z" />
<glyph unicode="q" horiz-adv-x="1001" d="M82 461q0 109 24.5 201t79 158.5t138 103.5t204.5 37q39 0 71 -4.5t61.5 -12.5t60.5 -20q25 -12 49 -23l10 37h76v-1382l-100 -13v529q-63 -43 -125 -68q-72 -27 -166 -27q-199 0 -291 124t-92 360zM186 453q0 -70 12.5 -138.5t45 -124t92 -90t151.5 -34.5q96 0 162 36 q59 31 107 68v633q-43 27 -94 47q-60 22 -128 22h-6q-174 0 -258 -100t-84 -319z" />
<glyph unicode="r" horiz-adv-x="661" d="M125 938h92l16 -135q70 76 148 110q96 47 188 48q63 0 107 -21l-31 -92q-23 6 -46.5 10t-57.5 4q-86 0 -170 -57q-66 -47 -127 -113v-692h-101v686z" />
<glyph unicode="s" horiz-adv-x="833" d="M74 37l35 88q45 -25 118.5 -43.5t151.5 -18.5q49 0 99 6.5t90 23t65.5 50t25.5 86.5q0 100 -108 148q-78 35 -166 64.5t-160 62.5q-61 29 -98 77t-37 124q0 78 36 128t90 77.5t117.5 39t121.5 11.5q100 0 172.5 -16.5t111.5 -33.5l-37 -84q-51 23 -112.5 35t-138.5 12 q-74 0 -124.5 -13t-80 -34.5t-41.5 -50t-12 -57.5q0 -51 20.5 -81.5t75.5 -59.5q57 -33 142 -61t171 -64q70 -33 115 -83.5t45 -136.5q0 -133 -100.5 -194.5t-288.5 -61.5q-35 0 -76 5.5t-83 12.5t-78 18.5t-62 23.5z" />
<glyph unicode="t" horiz-adv-x="704" d="M25 848v76l159 16v205l101 16v-223h370v-88h-370v-500q0 -74 5 -127t26.5 -88t63.5 -52t112 -17q39 0 79.5 6t77.5 16l23 -76q-51 -16 -106.5 -25.5t-102.5 -9.5q-90 0 -144.5 26t-84 69t-40 101t-10.5 124v551h-159z" />
<glyph unicode="u" horiz-adv-x="1007" d="M129 350v588h100v-567q0 -72 7.5 -128.5t32 -95t67.5 -60t117 -21.5q49 0 101 13t100 35.5t91 51.5q10 6 23 14v758h100v-690l15 -248h-95l-10 86q-61 -41 -137 -68q-104 -41 -205 -41q-94 0 -154.5 24t-94 70t-46 116.5t-12.5 162.5z" />
<glyph unicode="v" horiz-adv-x="843" d="M6 938h111l295 -850h18l301 850h105l-344 -938h-148z" />
<glyph unicode="w" horiz-adv-x="1404" d="M29 938h102l242 -850h18l225 850h164l228 -850h16l250 850h102l-280 -938h-160l-227 850h-21l-227 -850h-160z" />
<glyph unicode="x" horiz-adv-x="903" d="M39 0l311 483l-307 455h117l274 -410h31l272 410h111l-297 -455l311 -483h-114l-279 438h-33l-280 -438h-117z" />
<glyph unicode="y" horiz-adv-x="858" d="M20 938h109l307 -801h19l284 801h105l-357 -989q-31 -86 -59.5 -161t-70.5 -129t-104.5 -85t-160.5 -31q-41 0 -65 8l12 87q14 -2 29.5 -4.5t33.5 -2.5q78 0 123 30t70 69q14 20 28.5 51t28 65.5t25.5 69.5t20 64z" />
<glyph unicode="z" horiz-adv-x="890" d="M61 0v78l635 772h-612v88h741v-78l-632 -772h636v-88h-768z" />
<glyph unicode="{" horiz-adv-x="696" d="M98 477v129q68 8 113 49t45 136v391q0 94 24.5 151.5t69.5 90t104.5 43t129.5 10.5h22v-88h-35q-119 0 -168 -45.5t-49 -167.5v-345q0 -133 -41 -197.5t-129 -80.5v-18q84 -27 127 -85.5t43 -191.5v-346q0 -121 52.5 -162t164.5 -41h35v-88h-22q-68 0 -127.5 7t-105.5 38 t-70.5 89.5t-24.5 162.5v375q0 86 -45 131t-113 53z" />
<glyph unicode="|" horiz-adv-x="378" d="M139 -381v1851h101v-1851h-101z" />
<glyph unicode="}" horiz-adv-x="696" d="M90 -291h35q113 0 165 41t52 162v346q0 133 43 191.5t127 85.5v18q-88 16 -129 80.5t-41 197.5v345q0 123 -49 168t-168 45h-35v88h23q70 0 129 -10.5t104 -43t70.5 -90t25.5 -151.5v-391q0 -94 44 -135.5t112 -49.5v-129q-68 -8 -112 -53t-44 -131v-375 q0 -104 -25.5 -162.5t-71.5 -89.5t-105.5 -38t-126.5 -7h-23v88z" />
<glyph unicode="~" horiz-adv-x="927" d="M84 514q43 25 108.5 49.5t129.5 24.5q47 0 84.5 -13.5t70.5 -30t65.5 -29.5t67.5 -13q66 0 110 17.5t85 41.5l39 -69q-51 -35 -108.5 -57.5t-125.5 -22.5q-47 0 -87 13t-73.5 30.5t-68.5 31t-70 13.5q-59 0 -104 -15.5t-92 -40.5z" />
<glyph unicode="&#xa1;" horiz-adv-x="378" d="M125 805v133h127v-133h-127zM139 -410v1055h101v-1055h-101z" />
<glyph unicode="&#xa2;" horiz-adv-x="888" d="M84 455q0 221 91 346t263 153v172h101v-168q80 0 151.5 -27.5t114.5 -76.5l-64 -63q-37 35 -87 56t-115 23v-804q72 4 128 20t101 33l31 -72q-37 -20 -110 -41.5t-150 -25.5v-168h-101v170q-186 20 -270 143t-84 330zM188 446q0 -147 57.5 -248.5t192.5 -125.5v790 q-121 -29 -185.5 -133.5t-64.5 -282.5z" />
<glyph unicode="&#xa3;" horiz-adv-x="970" d="M98 0v78q106 78 147.5 189.5t41.5 221.5v125h-178v88h180v136q0 164 31.5 267t88 162.5t132 81t161.5 21.5q47 0 100.5 -8t92.5 -21l-27 -84q-39 12 -77.5 18.5t-88.5 6.5q-70 0 -128 -18.5t-98 -68.5t-61.5 -139t-21.5 -227v-127h441v-88h-443v-125q0 -254 -151 -401 h639v-88h-781z" />
<glyph unicode="&#xa4;" horiz-adv-x="960" d="M84 233l129 129q-20 35 -33 76q-16 61 -16 127q0 119 55 197l-135 135l66 64l135 -138q84 57 215 58q76 0 131 -25q27 -10 47 -29l133 134l66 -64l-134 -133q23 -37 35 -78q18 -57 19 -127q0 -113 -58 -190l138 -136l-66 -65l-137 137q-84 -57 -215 -57q-78 0 -135 24 q-25 12 -48 25l-126 -129zM264 559q0 -45 10.5 -85t33 -70.5t59.5 -48t92 -17.5q127 0 182 61.5t55 169.5q0 43 -10 83t-32.5 71t-60.5 50.5t-93 19.5q-127 0 -181.5 -65.5t-54.5 -168.5z" />
<glyph unicode="&#xa5;" horiz-adv-x="1128" d="M29 1350h131l397 -641h18l404 641h121l-387 -607h284v-92h-342l-39 -59v-76h381v-90h-381v-426h-102v426h-383v90h383v74l-39 61h-344v92h287z" />
<glyph unicode="&#xa6;" horiz-adv-x="378" d="M139 299h101v-682h-101v682zM139 791v682h101v-682h-101z" />
<glyph unicode="&#xa7;" horiz-adv-x="1099" d="M106 -373l39 88q90 -37 173 -58.5t184 -21.5q180 0 273 54.5t93 148.5q0 51 -24.5 95.5t-114.5 93.5q-41 23 -99.5 44t-119.5 45.5t-120.5 50.5t-102.5 52q-80 47 -127 108.5t-47 164.5q0 121 75 190q59 57 148 88l-27 14q-80 47 -127 108.5t-47 166.5q0 82 39 141.5 t103.5 97t147.5 55t171 17.5q121 0 206 -18.5t161 -53.5l-37 -88q-51 23 -137.5 46.5t-192.5 23.5q-160 0 -257 -55.5t-97 -161.5q0 -57 28.5 -104.5t106.5 -88.5q41 -20 95 -42.5t112.5 -46t118 -47t106.5 -50.5q86 -45 135 -102.5t49 -163.5q0 -127 -84 -199 q-66 -55 -159 -82q20 -10 38 -20q84 -43 133.5 -101.5t49.5 -165.5q0 -80 -36 -137t-99.5 -95t-147.5 -55.5t-180 -17.5q-113 0 -219.5 22.5t-182.5 59.5zM219 498q0 -59 27.5 -106.5t107.5 -88.5q41 -18 95.5 -40.5t111.5 -47.5q37 -12 74 -29q131 45 188 88q66 51 66 129 q0 51 -23.5 96.5t-113.5 92.5q-41 23 -100.5 46.5t-121.5 45.5q-41 14 -81 33q-102 -35 -160 -80q-70 -51 -70 -139z" />
<glyph unicode="&#xa8;" horiz-adv-x="1056" d="M309 1171v140h101v-140h-101zM643 1171v140h102v-140h-102z" />
<glyph unicode="&#xa9;" horiz-adv-x="1628" d="M98 674q0 170 53.5 299t148.5 218t226 134t285 45q156 0 288 -46t227 -136t148.5 -218t53.5 -296q0 -164 -53.5 -294t-148.5 -219t-227 -136.5t-288 -47.5q-154 0 -285 47.5t-226 136.5t-148.5 219t-53.5 294zM197 674q0 -143 45 -257t126 -190.5t193.5 -118.5t249.5 -42 q145 0 259 43t193.5 121.5t123 191.5t43.5 252q0 147 -46.5 260t-127 190.5t-194.5 118.5t-251 41q-145 0 -260 -43t-193.5 -123t-119.5 -193.5t-41 -250.5zM469 668q0 195 91 295t271 100q66 0 124.5 -23.5t93.5 -60.5l-62 -64q-29 29 -67.5 46.5t-90.5 17.5 q-127 0 -192.5 -78t-65.5 -239q0 -121 60.5 -203t185.5 -82q61 0 110.5 13t86.5 32l26 -72q-33 -20 -97 -37.5t-136 -17.5q-174 0 -256 100.5t-82 272.5z" />
<glyph unicode="&#xab;" horiz-adv-x="884" d="M29 469l338 403l65 -55l-289 -346l287 -346l-65 -59zM342 469l352 403l64 -55l-301 -346l305 -346l-70 -59z" />
<glyph unicode="&#xad;" horiz-adv-x="747" d="M129 432v90h489v-90h-489z" />
<glyph unicode="&#xae;" horiz-adv-x="1060" d="M59 997q0 111 36 195t98.5 142.5t148.5 90t188 31.5t188.5 -31.5t150 -90t98 -142.5t34.5 -195q0 -109 -34.5 -193.5t-98 -142t-149.5 -89t-189 -31.5q-102 0 -188 31.5t-148.5 89t-98.5 142.5t-36 193zM154 997q0 -168 98 -272t278 -104t278.5 104t98.5 272 q0 170 -98 274.5t-279 104.5q-180 0 -278 -104.5t-98 -274.5zM365 756v491h174q86 0 131 -32.5t45 -104.5q0 -106 -92 -145l104 -209h-90l-96 198h-92v-198h-84zM449 1020h88q45 0 68.5 20.5t23.5 69.5q0 68 -92 68h-88v-158z" />
<glyph unicode="&#xaf;" horiz-adv-x="1056" d="M264 1200v88h529v-88h-529z" />
<glyph unicode="&#xb0;" horiz-adv-x="667" d="M84 1122q0 113 68.5 180.5t195.5 67.5q123 0 179.5 -72.5t56.5 -179.5q0 -113 -70 -179.5t-197 -66.5q-125 0 -179 72t-54 178zM176 1118q0 -63 30.5 -112.5t112.5 -49.5q92 0 132.5 44t40.5 124q0 66 -31 114t-113 48q-92 0 -132 -46t-40 -122z" />
<glyph unicode="&#xb2;" horiz-adv-x="591" d="M59 1298q49 27 102.5 43.5t112.5 16.5q106 0 173 -45t67 -152q0 -70 -42 -133t-110 -137l-159 -168h329v-74h-458v56l217 227q74 78 100.5 129t26.5 96q0 63 -41 95t-107 32q-51 0 -95 -15.5t-83 -37.5z" />
<glyph unicode="&#xb3;" horiz-adv-x="591" d="M51 719l51 59q25 -20 71 -40.5t112 -20.5q74 0 120 32.5t46 98.5q0 63 -46.5 97t-128.5 34q-16 0 -31.5 -2t-23.5 -6v78h37q68 0 118 29.5t50 92.5q0 57 -38 84t-99 27q-55 0 -101.5 -19.5t-70.5 -39.5l-39 61q27 20 84 47t131 27q109 0 169 -42t60 -136 q0 -59 -33.5 -98.5t-78.5 -53.5q61 -18 100 -61t39 -115q0 -57 -22.5 -97t-59.5 -65.5t-84 -38t-96 -12.5q-90 0 -147.5 25.5t-88.5 54.5z" />
<glyph unicode="&#xb4;" horiz-adv-x="1056" d="M348 1071l246 324h117l-254 -324h-109z" />
<glyph unicode="&#xb5;" horiz-adv-x="1007" d="M129 -451v1389h100v-567q0 -72 7.5 -128.5t32 -95t67.5 -60t117 -21.5q49 0 101 13t100 35.5t91 51.5q10 6 23 14v758h100v-690l15 -248h-95l-10 86q-61 -41 -137 -68q-104 -41 -205 -41q-86 0 -141 23q-37 16 -66 45v-496h-100z" />
<glyph unicode="&#xb6;" horiz-adv-x="1077" d="M84 934q0 100 19.5 178t63.5 131t116.5 80t185.5 27h469v-1794l-102 -13v1717h-174v-1704l-103 -13v1000h-137q-102 0 -168 30.5t-103.5 84t-52 124t-14.5 152.5z" />
<glyph unicode="&#xb7;" horiz-adv-x="296" d="M82 477v135h133v-135h-133z" />
<glyph unicode="&#xb8;" horiz-adv-x="1056" d="M315 -420l29 78q33 -12 74 -21.5t80 -9.5q80 0 112.5 20.5t32.5 67.5q0 53 -52 77t-190 26l33 82q168 0 237.5 -45t69.5 -140q0 -86 -56 -130t-183 -44q-57 0 -104.5 11.5t-82.5 27.5z" />
<glyph unicode="&#xb9;" horiz-adv-x="591" d="M90 1243l207 107h68v-701h-95v606l-147 -75z" />
<glyph unicode="&#xbb;" horiz-adv-x="884" d="M176 813l70 59l350 -403l-352 -403l-64 55l301 346zM506 121l289 346l-287 346l65 59l336 -403l-338 -403z" />
<glyph unicode="&#xbd;" horiz-adv-x="1366" d="M90 1243l207 107h68v-701h-95v606l-147 -75zM98 -66l977 1481h113l-979 -1481h-111zM858 647q49 27 102.5 44.5t112.5 17.5q106 0 173 -46.5t67 -152.5q0 -68 -42 -131.5t-110 -136.5l-160 -168h330v-74h-459v55l218 228q74 76 100.5 127t26.5 98q0 61 -41 94t-107 33 q-51 0 -95 -15.5t-83 -37.5z" />
<glyph unicode="&#xbf;" horiz-adv-x="800" d="M96 -106q0 66 24 120t61.5 104t80.5 99t81 102.5t62.5 113t24.5 132.5v80h103v-80q0 -84 -24.5 -151.5t-61.5 -124t-80 -105.5t-80 -96t-60.5 -93t-23.5 -99q0 -102 68.5 -170t189.5 -68q94 0 164 26.5t121 59.5l45 -82q-66 -39 -144.5 -66.5t-185.5 -27.5 q-172 0 -268.5 89t-96.5 237zM412 805v133h129v-133h-129z" />
<glyph unicode="&#xc0;" horiz-adv-x="1214" d="M18 0l496 1350h170l512 -1350h-113l-157 418h-641l-152 -418h-115zM303 1805h115l246 -324h-109zM317 508h572l-281 749h-18z" />
<glyph unicode="&#xc1;" horiz-adv-x="1214" d="M18 0l496 1350h170l512 -1350h-113l-157 418h-641l-152 -418h-115zM317 508h572l-281 749h-18zM524 1481l246 324h117l-254 -324h-109z" />
<glyph unicode="&#xc2;" horiz-adv-x="1214" d="M18 0l496 1350h170l512 -1350h-113l-157 418h-641l-152 -418h-115zM301 1481l222 324h147l229 -324h-106l-186 262h-19l-184 -262h-103zM317 508h572l-281 749h-18z" />
<glyph unicode="&#xc3;" horiz-adv-x="1214" d="M18 0l496 1350h170l512 -1350h-113l-157 418h-641l-152 -418h-115zM299 1663q31 25 78 46.5t94 21.5q41 0 72 -10.5t58.5 -23.5t55 -23.5t58.5 -10.5q43 0 77 13.5t66 31.5l37 -69q-37 -29 -83 -46.5t-97 -17.5q-39 0 -70.5 9.5t-60.5 22.5t-55.5 23.5t-57.5 10.5 q-37 0 -70.5 -14.5t-62.5 -32.5zM317 508h572l-281 749h-18z" />
<glyph unicode="&#xc4;" horiz-adv-x="1214" d="M18 0l496 1350h170l512 -1350h-113l-157 418h-641l-152 -418h-115zM317 508h572l-281 749h-18zM383 1581v140h101v-140h-101zM717 1581v140h102v-140h-102z" />
<glyph unicode="&#xc5;" horiz-adv-x="1214" d="M18 0l496 1350h170l512 -1350h-113l-157 418h-641l-152 -418h-115zM317 508h572l-281 749h-18zM418 1643q0 174 191 174q96 0 135 -49t39 -127q0 -174 -193 -174q-94 0 -133 49t-39 127zM502 1639q0 -41 17.5 -67.5t74.5 -26.5t79 24.5t22 75.5q0 39 -15.5 67.5 t-72.5 28.5t-81 -25.5t-24 -76.5z" />
<glyph unicode="&#xc6;" horiz-adv-x="1792" d="M-27 0l830 1350h870v-93h-686l27 -516h628v-92h-624l29 -559h639v-90h-742l-20 418h-576l-252 -418h-123zM403 508h515l-37 749h-19z" />
<glyph unicode="&#xc7;" horiz-adv-x="1169" d="M84 674q0 186 42 318t120 217t187.5 123t244.5 38q133 0 235.5 -43t161.5 -113l-63 -63q-57 57 -134 93t-196 36q-262 0 -377 -162t-115 -463q0 -276 105.5 -430.5t349.5 -154.5q150 0 248 24.5t162 46.5l28 -80q-70 -29 -187.5 -56.5t-250.5 -27.5q-293 4 -427 175.5 t-134 521.5zM424 -420l29 78q33 -12 74 -21.5t80 -9.5q80 0 112.5 20.5t32.5 67.5q0 53 -52 77t-190 26l33 82q168 0 237.5 -45t69.5 -140q0 -86 -56 -130t-183 -44q-57 0 -104.5 11.5t-82.5 27.5z" />
<glyph unicode="&#xc8;" horiz-adv-x="1048" d="M152 0v1350h770v-93h-670v-516h647v-92h-647v-559h690v-90h-790zM268 1805h115l246 -324h-109z" />
<glyph unicode="&#xc9;" horiz-adv-x="1048" d="M152 0v1350h770v-93h-670v-516h647v-92h-647v-559h690v-90h-790zM450 1481l246 324h117l-254 -324h-109z" />
<glyph unicode="&#xca;" horiz-adv-x="1048" d="M152 0v1350h770v-93h-670v-516h647v-92h-647v-559h690v-90h-790zM229 1481l222 324h147l229 -324h-106l-186 262h-19l-184 -262h-103z" />
<glyph unicode="&#xcb;" horiz-adv-x="1048" d="M152 0v1350h770v-93h-670v-516h647v-92h-647v-559h690v-90h-790zM309 1581v140h101v-140h-101zM643 1581v140h102v-140h-102z" />
<glyph unicode="&#xcc;" horiz-adv-x="403" d="M-62 1805h115l246 -324h-109zM152 0v1350h100v-1350h-100z" />
<glyph unicode="&#xcd;" horiz-adv-x="403" d="M110 1481l246 324h117l-254 -324h-109zM152 0v1350h100v-1350h-100z" />
<glyph unicode="&#xce;" horiz-adv-x="403" d="M-95 1481l222 324h147l229 -324h-106l-186 262h-19l-184 -262h-103zM152 0v1350h100v-1350h-100z" />
<glyph unicode="&#xcf;" horiz-adv-x="403" d="M-13 1581v140h101v-140h-101zM152 0v1350h100v-1350h-100zM321 1581v140h102v-140h-102z" />
<glyph unicode="&#xd0;" horiz-adv-x="1234" d="M29 649v92h581v-92h-581zM168 0v1350h354q154 0 271.5 -37t197.5 -118t121 -211t41 -316q0 -193 -50 -322t-141.5 -206t-216 -108.5t-276.5 -31.5h-301zM268 90h197q141 0 249.5 27.5t182.5 96.5t112 184.5t38 295.5q0 295 -129.5 429t-391.5 134h-258v-1167z" />
<glyph unicode="&#xd1;" horiz-adv-x="1320" d="M152 0v1350h186l711 -1262h18v1262h102v-1350h-184l-715 1260h-18v-1260h-100zM366 1663q31 25 78 46.5t94 21.5q41 0 72 -10.5t58.5 -23.5t55 -23.5t58.5 -10.5q43 0 77 13.5t66 31.5l37 -69q-37 -29 -83 -46.5t-97 -17.5q-39 0 -70.5 9.5t-60.5 22.5t-55.5 23.5 t-57.5 10.5q-37 0 -70.5 -14.5t-62.5 -32.5z" />
<glyph unicode="&#xd2;" horiz-adv-x="1257" d="M84 682q0 354 137 521t434 167q145 0 243.5 -47t160 -137t88.5 -221t27 -297q0 -352 -138.5 -521.5t-433.5 -169.5q-147 0 -245.5 48.5t-160 139.5t-87 220t-25.5 297zM190 659q0 -127 17.5 -234.5t63.5 -186t125 -123.5t200 -45q135 0 226 40t145.5 116.5t77 194 t22.5 273.5q0 123 -17.5 230.5t-63.5 186.5t-126 124t-203 45q-133 0 -223 -40t-144 -118t-77 -194.5t-23 -268.5zM313 1805h115l246 -324h-109z" />
<glyph unicode="&#xd3;" horiz-adv-x="1257" d="M84 682q0 354 137 521t434 167q145 0 243.5 -47t160 -137t88.5 -221t27 -297q0 -352 -138.5 -521.5t-433.5 -169.5q-147 0 -245.5 48.5t-160 139.5t-87 220t-25.5 297zM190 659q0 -127 17.5 -234.5t63.5 -186t125 -123.5t200 -45q135 0 226 40t145.5 116.5t77 194 t22.5 273.5q0 123 -17.5 230.5t-63.5 186.5t-126 124t-203 45q-133 0 -223 -40t-144 -118t-77 -194.5t-23 -268.5zM594 1481l246 324h117l-254 -324h-109z" />
<glyph unicode="&#xd4;" horiz-adv-x="1257" d="M84 682q0 354 137 521t434 167q145 0 243.5 -47t160 -137t88.5 -221t27 -297q0 -352 -138.5 -521.5t-433.5 -169.5q-147 0 -245.5 48.5t-160 139.5t-87 220t-25.5 297zM190 659q0 -127 17.5 -234.5t63.5 -186t125 -123.5t200 -45q135 0 226 40t145.5 116.5t77 194 t22.5 273.5q0 123 -17.5 230.5t-63.5 186.5t-126 124t-203 45q-133 0 -223 -40t-144 -118t-77 -194.5t-23 -268.5zM348 1481l222 324h147l229 -324h-106l-186 262h-19l-184 -262h-103z" />
<glyph unicode="&#xd5;" horiz-adv-x="1257" d="M84 682q0 354 137 521t434 167q145 0 243.5 -47t160 -137t88.5 -221t27 -297q0 -352 -138.5 -521.5t-433.5 -169.5q-147 0 -245.5 48.5t-160 139.5t-87 220t-25.5 297zM190 659q0 -127 17.5 -234.5t63.5 -186t125 -123.5t200 -45q135 0 226 40t145.5 116.5t77 194 t22.5 273.5q0 123 -17.5 230.5t-63.5 186.5t-126 124t-203 45q-133 0 -223 -40t-144 -118t-77 -194.5t-23 -268.5zM348 1663q31 25 78 46.5t94 21.5q41 0 72 -10.5t58.5 -23.5t55 -23.5t58.5 -10.5q43 0 77 13.5t66 31.5l37 -69q-37 -29 -83 -46.5t-97 -17.5 q-39 0 -70.5 9.5t-60.5 22.5t-55.5 23.5t-57.5 10.5q-37 0 -70.5 -14.5t-62.5 -32.5z" />
<glyph unicode="&#xd6;" horiz-adv-x="1257" d="M84 682q0 354 137 521t434 167q145 0 243.5 -47t160 -137t88.5 -221t27 -297q0 -352 -138.5 -521.5t-433.5 -169.5q-147 0 -245.5 48.5t-160 139.5t-87 220t-25.5 297zM190 659q0 -127 17.5 -234.5t63.5 -186t125 -123.5t200 -45q135 0 226 40t145.5 116.5t77 194 t22.5 273.5q0 123 -17.5 230.5t-63.5 186.5t-126 124t-203 45q-133 0 -223 -40t-144 -118t-77 -194.5t-23 -268.5zM426 1581v140h101v-140h-101zM760 1581v140h102v-140h-102z" />
<glyph unicode="&#xd7;" d="M182 213l330 330l-330 334l64 63l332 -332l331 332l66 -63l-334 -334l334 -330l-66 -63l-331 329l-332 -329z" />
<glyph unicode="&#xd8;" horiz-adv-x="1257" d="M84 31l106 139q-57 90 -81 213q-25 131 -25 299q0 354 137 521t434 167q145 0 244 -47q61 -29 109 -76l94 123l72 -47l-109 -145q55 -88 82 -213q27 -131 27 -297q0 -352 -138.5 -521.5t-433.5 -169.5q-147 0 -248 48q-59 31 -108 75l-92 -123zM190 659q0 -127 19 -235 q14 -92 49 -162l686 903q-35 41 -84 68q-80 47 -203 47q-133 0 -223 -40t-144 -118t-77 -194.5t-23 -268.5zM311 184q35 -43 84 -71q80 -43 201 -43q135 0 226 40t145.5 116.5t77 194t22.5 273.5q0 123 -18 230q-14 94 -54 166z" />
<glyph unicode="&#xd9;" horiz-adv-x="1245" d="M139 500v850h103v-885q0 -92 18.5 -166t61.5 -125t112.5 -77.5t169.5 -26.5q113 0 189.5 22.5t123 73.5t67 134t20.5 202v848h100v-865q0 -270 -122 -389t-376 -119q-248 0 -357.5 123t-109.5 400zM354 1805h115l246 -324h-109z" />
<glyph unicode="&#xda;" horiz-adv-x="1245" d="M139 500v850h103v-885q0 -92 18.5 -166t61.5 -125t112.5 -77.5t169.5 -26.5q113 0 189.5 22.5t123 73.5t67 134t20.5 202v848h100v-865q0 -270 -122 -389t-376 -119q-248 0 -357.5 123t-109.5 400zM528 1481l246 324h117l-254 -324h-109z" />
<glyph unicode="&#xdb;" horiz-adv-x="1245" d="M139 500v850h103v-885q0 -92 18.5 -166t61.5 -125t112.5 -77.5t169.5 -26.5q113 0 189.5 22.5t123 73.5t67 134t20.5 202v848h100v-865q0 -270 -122 -389t-376 -119q-248 0 -357.5 123t-109.5 400zM321 1481l222 324h147l229 -324h-106l-186 262h-19l-184 -262h-103z" />
<glyph unicode="&#xdc;" horiz-adv-x="1245" d="M139 500v850h103v-885q0 -92 18.5 -166t61.5 -125t112.5 -77.5t169.5 -26.5q113 0 189.5 22.5t123 73.5t67 134t20.5 202v848h100v-865q0 -270 -122 -389t-376 -119q-248 0 -357.5 123t-109.5 400zM405 1581v140h101v-140h-101zM739 1581v140h102v-140h-102z" />
<glyph unicode="&#xdd;" horiz-adv-x="1062" d="M-4 1350h131l397 -641h17l403 641h123l-483 -758v-592h-103v590zM461 1481l246 324h117l-254 -324h-109z" />
<glyph unicode="&#xde;" horiz-adv-x="1091" d="M139 0v1350h103v-285h323q442 0 443 -389q0 -188 -114 -290.5t-300 -102.5h-352v-283h-103zM242 373h340q156 0 239.5 75.5t83.5 227.5q0 154 -88 226.5t-235 72.5h-340v-602z" />
<glyph unicode="&#xdf;" horiz-adv-x="1044" d="M139 0v905q0 129 33 222.5t88 153.5t132 90t163 30q63 0 122.5 -16.5t104.5 -50.5t72 -87t27 -127q0 -90 -49.5 -150.5t-157.5 -138.5q-51 -37 -94 -78.5t-43 -88.5q0 -51 27.5 -78t84.5 -54l142 -67q35 -16 70.5 -40t63 -52.5t45 -66.5t17.5 -85q0 -125 -82 -184.5 t-235 -59.5q-76 0 -154 17.5t-127 42.5l35 86q29 -12 100.5 -34.5t149.5 -22.5q94 0 151.5 35.5t57.5 107.5q0 68 -34 104.5t-118 75.5l-129 60q-88 39 -128 85t-40 115q0 72 44 130.5t151 131.5q82 55 114.5 100.5t32.5 106.5q0 104 -66.5 147.5t-158.5 43.5 q-76 0 -134.5 -29t-98 -82t-59 -127t-19.5 -160v-911h-101z" />
<glyph unicode="&#xe0;" horiz-adv-x="925" d="M80 262q0 82 28.5 135.5t81 84t122 43t153.5 12.5h63q29 0 55.5 -2.5t54.5 -4.5t60 -4v49q0 86 -10 142.5t-36.5 91.5t-75 49t-127.5 14q-82 0 -166 -24.5t-129 -46.5l-31 80q70 31 159 55.5t195 24.5q90 0 152.5 -19.5t100.5 -66t53.5 -118t15.5 -177.5v-365 q0 -80 19.5 -108.5t66.5 -28.5v-84q-10 -2 -35 -2q-66 0 -95.5 29.5t-41.5 80.5q-51 -45 -136 -85t-212 -40q-154 0 -219.5 79t-65.5 206zM162 1395h115l246 -324h-109zM184 266q0 -106 51.5 -153t165.5 -47q84 0 163 38.5t134 83.5v246q-61 8 -120.5 11.5t-131.5 3.5 q-147 0 -204.5 -45.5t-57.5 -137.5z" />
<glyph unicode="&#xe1;" horiz-adv-x="925" d="M80 262q0 82 28.5 135.5t81 84t122 43t153.5 12.5h63q29 0 55.5 -2.5t54.5 -4.5t60 -4v49q0 86 -10 142.5t-36.5 91.5t-75 49t-127.5 14q-82 0 -166 -24.5t-129 -46.5l-31 80q70 31 159 55.5t195 24.5q90 0 152.5 -19.5t100.5 -66t53.5 -118t15.5 -177.5v-365 q0 -80 19.5 -108.5t66.5 -28.5v-84q-10 -2 -35 -2q-66 0 -95.5 29.5t-41.5 80.5q-51 -45 -136 -85t-212 -40q-154 0 -219.5 79t-65.5 206zM184 266q0 -106 51.5 -153t165.5 -47q84 0 163 38.5t134 83.5v246q-61 8 -120.5 11.5t-131.5 3.5q-147 0 -204.5 -45.5t-57.5 -137.5z M330 1071l246 324h117l-254 -324h-109z" />
<glyph unicode="&#xe2;" horiz-adv-x="925" d="M80 262q0 82 28.5 135.5t81 84t122 43t153.5 12.5h63q29 0 55.5 -2.5t54.5 -4.5t60 -4v49q0 86 -10 142.5t-36.5 91.5t-75 49t-127.5 14q-82 0 -166 -24.5t-129 -46.5l-31 80q70 31 159 55.5t195 24.5q90 0 152.5 -19.5t100.5 -66t53.5 -118t15.5 -177.5v-365 q0 -80 19.5 -108.5t66.5 -28.5v-84q-10 -2 -35 -2q-66 0 -95.5 29.5t-41.5 80.5q-51 -45 -136 -85t-212 -40q-154 0 -219.5 79t-65.5 206zM139 1071l222 324h147l229 -324h-106l-186 262h-19l-184 -262h-103zM184 266q0 -106 51.5 -153t165.5 -47q84 0 163 38.5t134 83.5 v246q-61 8 -120.5 11.5t-131.5 3.5q-147 0 -204.5 -45.5t-57.5 -137.5z" />
<glyph unicode="&#xe3;" horiz-adv-x="925" d="M80 262q0 82 28.5 135.5t81 84t122 43t153.5 12.5h63q29 0 55.5 -2.5t54.5 -4.5t60 -4v49q0 86 -10 142.5t-36.5 91.5t-75 49t-127.5 14q-82 0 -166 -24.5t-129 -46.5l-31 80q70 31 159 55.5t195 24.5q90 0 152.5 -19.5t100.5 -66t53.5 -118t15.5 -177.5v-365 q0 -80 19.5 -108.5t66.5 -28.5v-84q-10 -2 -35 -2q-66 0 -95.5 29.5t-41.5 80.5q-51 -45 -136 -85t-212 -40q-154 0 -219.5 79t-65.5 206zM116 1253q31 25 78 46.5t94 21.5q41 0 72 -10.5t58.5 -23.5t55 -23.5t58.5 -10.5q43 0 77 13.5t66 31.5l37 -69q-37 -29 -83 -46.5 t-97 -17.5q-39 0 -70.5 9.5t-60.5 22.5t-55.5 23.5t-57.5 10.5q-37 0 -70.5 -14.5t-62.5 -32.5zM184 266q0 -106 51.5 -153t165.5 -47q84 0 163 38.5t134 83.5v246q-61 8 -120.5 11.5t-131.5 3.5q-147 0 -204.5 -45.5t-57.5 -137.5z" />
<glyph unicode="&#xe4;" horiz-adv-x="925" d="M80 262q0 82 28.5 135.5t81 84t122 43t153.5 12.5h63q29 0 55.5 -2.5t54.5 -4.5t60 -4v49q0 86 -10 142.5t-36.5 91.5t-75 49t-127.5 14q-82 0 -166 -24.5t-129 -46.5l-31 80q70 31 159 55.5t195 24.5q90 0 152.5 -19.5t100.5 -66t53.5 -118t15.5 -177.5v-365 q0 -80 19.5 -108.5t66.5 -28.5v-84q-10 -2 -35 -2q-66 0 -95.5 29.5t-41.5 80.5q-51 -45 -136 -85t-212 -40q-154 0 -219.5 79t-65.5 206zM184 266q0 -106 51.5 -153t165.5 -47q84 0 163 38.5t134 83.5v246q-61 8 -120.5 11.5t-131.5 3.5q-147 0 -204.5 -45.5t-57.5 -137.5z M215 1171v140h101v-140h-101zM549 1171v140h102v-140h-102z" />
<glyph unicode="&#xe5;" horiz-adv-x="925" d="M80 262q0 82 28.5 135.5t81 84t122 43t153.5 12.5h63q29 0 55.5 -2.5t54.5 -4.5t60 -4v49q0 86 -10 142.5t-36.5 91.5t-75 49t-127.5 14q-82 0 -166 -24.5t-129 -46.5l-31 80q70 31 159 55.5t195 24.5q90 0 152.5 -19.5t100.5 -66t53.5 -118t15.5 -177.5v-365 q0 -80 19.5 -108.5t66.5 -28.5v-84q-10 -2 -35 -2q-66 0 -95.5 29.5t-41.5 80.5q-51 -45 -136 -85t-212 -40q-154 0 -219.5 79t-65.5 206zM184 266q0 -106 51.5 -153t165.5 -47q84 0 163 38.5t134 83.5v246q-61 8 -120.5 11.5t-131.5 3.5q-147 0 -204.5 -45.5t-57.5 -137.5z M256 1276q0 174 191 174q96 0 135 -49t39 -127q0 -174 -193 -174q-94 0 -133 49t-39 127zM340 1272q0 -41 17.5 -67.5t74.5 -26.5t79 24.5t22 75.5q0 39 -15.5 67.5t-72.5 28.5t-81 -25.5t-24 -76.5z" />
<glyph unicode="&#xe6;" horiz-adv-x="1562" d="M84 262q0 80 28.5 132t81 82t122 42t155.5 12h231v45q0 86 -9 142.5t-35.5 91.5t-76 49t-128.5 14q-41 0 -84 -8t-82 -19t-73 -23.5t-56 -20.5l-31 80q70 31 159 55.5t195 24.5q127 0 194.5 -36t98.5 -128q98 164 342 164q109 0 179.5 -35t110.5 -95.5t55.5 -144.5 t15.5 -182v-62h-670q2 -115 24.5 -186.5t63.5 -113.5t101.5 -59t138.5 -17q92 0 171.5 26.5t123.5 46.5l34 -76q-23 -12 -60.5 -27.5t-82.5 -27.5t-97.5 -21.5t-103.5 -9.5q-133 0 -217 39t-131 117q-57 -55 -160.5 -105.5t-242.5 -50.5q-154 0 -219.5 79t-65.5 206z M188 270q0 -109 49.5 -156.5t168.5 -47.5q84 0 171 44t158 103q-16 49 -23 105.5t-10 123.5h-251q-147 0 -205 -45t-58 -127zM809 530h565q0 100 -19.5 166t-53 106t-81 55t-102.5 15q-160 0 -228.5 -83.5t-80.5 -258.5z" />
<glyph unicode="&#xe7;" horiz-adv-x="845" d="M84 455q0 248 117.5 377t339.5 129q78 0 149.5 -28t114.5 -77l-64 -63q-37 35 -88 57t-116 22q-166 0 -257.5 -105t-91.5 -321q0 -84 17.5 -153.5t57.5 -119.5t102.5 -78.5t150.5 -28.5q80 0 142.5 17t109.5 36l31 -72q-20 -12 -52 -24.5t-71 -21.5t-81 -16.5t-85 -7.5 q-223 0 -324.5 127t-101.5 351zM270 -420l29 78q33 -12 74 -21.5t80 -9.5q80 0 112.5 20.5t32.5 67.5q0 53 -52 77t-190 26l33 82q168 0 237.5 -45t69.5 -140q0 -86 -56 -130t-183 -44q-57 0 -104.5 11.5t-82.5 27.5z" />
<glyph unicode="&#xe8;" horiz-adv-x="942" d="M84 475q0 248 102.5 367t311.5 119q109 0 179.5 -35t110 -95.5t55 -144.5t15.5 -182v-62h-670q0 -106 21 -176q23 -76 64.5 -120t101 -62t139.5 -18q94 0 174 26.5t121 46.5l37 -76q-23 -12 -60.5 -27.5t-83 -27.5t-97.5 -21.5t-103 -9.5q-119 0 -199 30t-128 91.5 t-69.5 155.5t-21.5 221zM188 530h566q0 100 -18.5 166t-53.5 106t-81 55t-101 15q-174 0 -242 -100q-59 -82 -70 -242zM260 1395h115l246 -324h-109z" />
<glyph unicode="&#xe9;" horiz-adv-x="942" d="M84 475q0 248 102.5 367t311.5 119q109 0 179.5 -35t110 -95.5t55 -144.5t15.5 -182v-62h-670q0 -106 21 -176q23 -76 64.5 -120t101 -62t139.5 -18q94 0 174 26.5t121 46.5l37 -76q-23 -12 -60.5 -27.5t-83 -27.5t-97.5 -21.5t-103 -9.5q-119 0 -199 30t-128 91.5 t-69.5 155.5t-21.5 221zM188 530h566q0 100 -18.5 166t-53.5 106t-81 55t-101 15q-174 0 -242 -100q-59 -82 -70 -242zM393 1071l246 324h117l-254 -324h-109z" />
<glyph unicode="&#xea;" horiz-adv-x="942" d="M84 475q0 248 102.5 367t311.5 119q109 0 179.5 -35t110 -95.5t55 -144.5t15.5 -182v-62h-670q0 -106 21 -176q23 -76 64.5 -120t101 -62t139.5 -18q94 0 174 26.5t121 46.5l37 -76q-23 -12 -60.5 -27.5t-83 -27.5t-97.5 -21.5t-103 -9.5q-119 0 -199 30t-128 91.5 t-69.5 155.5t-21.5 221zM188 530h566q0 100 -18.5 166t-53.5 106t-81 55t-101 15q-174 0 -242 -100q-59 -82 -70 -242zM204 1071l222 324h147l229 -324h-106l-186 262h-19l-184 -262h-103z" />
<glyph unicode="&#xeb;" horiz-adv-x="942" d="M84 475q0 248 102.5 367t311.5 119q109 0 179.5 -35t110 -95.5t55 -144.5t15.5 -182v-62h-670q0 -106 21 -176q23 -76 64.5 -120t101 -62t139.5 -18q94 0 174 26.5t121 46.5l37 -76q-23 -12 -60.5 -27.5t-83 -27.5t-97.5 -21.5t-103 -9.5q-119 0 -199 30t-128 91.5 t-69.5 155.5t-21.5 221zM188 530h566q0 100 -18.5 166t-53.5 106t-81 55t-101 15q-174 0 -242 -100q-59 -82 -70 -242zM260 1171v140h101v-140h-101zM594 1171v140h102v-140h-102z" />
<glyph unicode="&#xec;" horiz-adv-x="378" d="M-31 1395h115l246 -324h-109zM139 0v938h101v-938h-101z" />
<glyph unicode="&#xed;" horiz-adv-x="378" d="M55 1071l246 324h117l-254 -324h-109zM139 0v938h101v-938h-101z" />
<glyph unicode="&#xee;" horiz-adv-x="378" d="M-72 1071l187 324h145l195 -324h-105l-153 262h-17l-151 -262h-101zM139 0v938h101v-938h-101z" />
<glyph unicode="&#xef;" horiz-adv-x="378" d="M-10 1171v140h100v-140h-100zM139 0v938h101v-938h-101zM279 1171v140h102v-140h-102z" />
<glyph unicode="&#xf0;" horiz-adv-x="1011" d="M84 473q0 242 106.5 365t315.5 123q106 0 209 -46q39 -16 78 -36q-29 117 -91 198q-53 76 -137 129l-248 -135l-38 70l204 110q-102 47 -245 74l18 86q166 -31 289 -88q20 -10 39 -18l198 110l39 -67l-162 -91q53 -39 97 -90q86 -100 129 -250.5t43 -371.5 q0 -274 -95.5 -421t-328.5 -147q-227 0 -323.5 131.5t-96.5 364.5zM188 457q0 -82 15.5 -153t52.5 -124t96.5 -83.5t151.5 -30.5q94 0 157.5 33.5t99.5 95t50 147.5t14 193q0 125 -14 229q-50 36 -111 63q-94 45 -194 45q-170 0 -244 -110.5t-74 -304.5z" />
<glyph unicode="&#xf1;" horiz-adv-x="1007" d="M125 938h94l6 -86q66 39 140 70q106 39 204 39q96 0 155.5 -24t94.5 -70t47.5 -115.5t12.5 -163.5v-588h-101v567q0 72 -7 128.5t-31.5 95t-67.5 60t-117 21.5q-49 0 -101.5 -13t-101.5 -35.5t-92 -51.5q-12 -6 -20 -16v-756h-101v690zM215 1253q31 25 78 46.5t94 21.5 q41 0 72 -10.5t58.5 -23.5t55 -23.5t58.5 -10.5q43 0 77 13.5t66 31.5l37 -69q-37 -29 -83 -46.5t-97 -17.5q-39 0 -70.5 9.5t-60.5 22.5t-55.5 23.5t-57.5 10.5q-37 0 -70.5 -14.5t-62.5 -32.5z" />
<glyph unicode="&#xf2;" horiz-adv-x="1011" d="M84 473q0 248 107.5 368t336.5 120q113 0 190 -35t123 -97.5t66.5 -155.5t20.5 -210q0 -248 -109 -367t-338 -119q-113 0 -189.5 34t-122.5 97.5t-65.5 154.5t-19.5 210zM188 457q0 -82 12.5 -153t45.5 -124t90 -83.5t145 -30.5q98 0 164 26.5t106 78.5t56 130t16 180 q0 80 -12 150.5t-46 124t-91.5 85t-145.5 31.5q-98 0 -163.5 -26.5t-104.5 -79.5t-55.5 -131t-16.5 -178zM244 1395h115l246 -324h-109z" />
<glyph unicode="&#xf3;" horiz-adv-x="1011" d="M84 473q0 248 107.5 368t336.5 120q113 0 190 -35t123 -97.5t66.5 -155.5t20.5 -210q0 -248 -109 -367t-338 -119q-113 0 -189.5 34t-122.5 97.5t-65.5 154.5t-19.5 210zM188 457q0 -82 12.5 -153t45.5 -124t90 -83.5t145 -30.5q98 0 164 26.5t106 78.5t56 130t16 180 q0 80 -12 150.5t-46 124t-91.5 85t-145.5 31.5q-98 0 -163.5 -26.5t-104.5 -79.5t-55.5 -131t-16.5 -178zM434 1071l246 324h117l-254 -324h-109z" />
<glyph unicode="&#xf4;" horiz-adv-x="1011" d="M84 473q0 248 107.5 368t336.5 120q113 0 190 -35t123 -97.5t66.5 -155.5t20.5 -210q0 -248 -109 -367t-338 -119q-113 0 -189.5 34t-122.5 97.5t-65.5 154.5t-19.5 210zM188 457q0 -82 12.5 -153t45.5 -124t90 -83.5t145 -30.5q98 0 164 26.5t106 78.5t56 130t16 180 q0 80 -12 150.5t-46 124t-91.5 85t-145.5 31.5q-98 0 -163.5 -26.5t-104.5 -79.5t-55.5 -131t-16.5 -178zM209 1071l222 324h147l229 -324h-106l-186 262h-19l-184 -262h-103z" />
<glyph unicode="&#xf5;" horiz-adv-x="1011" d="M84 473q0 248 107.5 368t336.5 120q113 0 190 -35t123 -97.5t66.5 -155.5t20.5 -210q0 -248 -109 -367t-338 -119q-113 0 -189.5 34t-122.5 97.5t-65.5 154.5t-19.5 210zM188 457q0 -82 12.5 -153t45.5 -124t90 -83.5t145 -30.5q98 0 164 26.5t106 78.5t56 130t16 180 q0 80 -12 150.5t-46 124t-91.5 85t-145.5 31.5q-98 0 -163.5 -26.5t-104.5 -79.5t-55.5 -131t-16.5 -178zM213 1253q31 25 78 46.5t94 21.5q41 0 72 -10.5t58.5 -23.5t55 -23.5t58.5 -10.5q43 0 77 13.5t66 31.5l37 -69q-37 -29 -83 -46.5t-97 -17.5q-39 0 -70.5 9.5 t-60.5 22.5t-55.5 23.5t-57.5 10.5q-37 0 -70.5 -14.5t-62.5 -32.5z" />
<glyph unicode="&#xf6;" horiz-adv-x="1011" d="M84 473q0 248 107.5 368t336.5 120q113 0 190 -35t123 -97.5t66.5 -155.5t20.5 -210q0 -248 -109 -367t-338 -119q-113 0 -189.5 34t-122.5 97.5t-65.5 154.5t-19.5 210zM188 457q0 -82 12.5 -153t45.5 -124t90 -83.5t145 -30.5q98 0 164 26.5t106 78.5t56 130t16 180 q0 80 -12 150.5t-46 124t-91.5 85t-145.5 31.5q-98 0 -163.5 -26.5t-104.5 -79.5t-55.5 -131t-16.5 -178zM291 1171v140h101v-140h-101zM625 1171v140h102v-140h-102z" />
<glyph unicode="&#xf7;" horiz-adv-x="1056" d="M127 500v90h801v-90h-801zM463 233v134h129v-134h-129zM463 723v133h129v-133h-129z" />
<glyph unicode="&#xf8;" horiz-adv-x="1011" d="M84 31l76 88q-43 66 -59.5 152.5t-16.5 201.5q0 248 107.5 368t336.5 120q170 0 267 -82l67 82l66 -50l-80 -94q43 -66 61.5 -152.5t18.5 -201.5q0 -248 -109 -367t-338 -119q-176 0 -268 80l-68 -80zM188 457q0 -74 9.5 -136.5t33.5 -113.5l498 594q-35 33 -84 52 t-117 19q-98 0 -163.5 -26.5t-104.5 -79.5t-55.5 -131t-16.5 -178zM279 135q35 -33 82.5 -51t119.5 -18q98 0 164 26.5t106 78.5t56 130t16 180q0 72 -10 136.5t-37 113.5z" />
<glyph unicode="&#xf9;" horiz-adv-x="1007" d="M129 350v588h100v-567q0 -72 7.5 -128.5t32 -95t67.5 -60t117 -21.5q49 0 101 13t100 35.5t91 51.5q10 6 23 14v758h100v-690l15 -248h-95l-10 86q-61 -41 -137 -68q-104 -41 -205 -41q-94 0 -154.5 24t-94 70t-46 116.5t-12.5 162.5zM221 1395h115l246 -324h-109z" />
<glyph unicode="&#xfa;" horiz-adv-x="1007" d="M129 350v588h100v-567q0 -72 7.5 -128.5t32 -95t67.5 -60t117 -21.5q49 0 101 13t100 35.5t91 51.5q10 6 23 14v758h100v-690l15 -248h-95l-10 86q-61 -41 -137 -68q-104 -41 -205 -41q-94 0 -154.5 24t-94 70t-46 116.5t-12.5 162.5zM463 1071l246 324h117l-254 -324 h-109z" />
<glyph unicode="&#xfb;" horiz-adv-x="1007" d="M129 350v588h100v-567q0 -72 7.5 -128.5t32 -95t67.5 -60t117 -21.5q49 0 101 13t100 35.5t91 51.5q10 6 23 14v758h100v-690l15 -248h-95l-10 86q-61 -41 -137 -68q-104 -41 -205 -41q-94 0 -154.5 24t-94 70t-46 116.5t-12.5 162.5zM202 1071l222 324h147l229 -324 h-106l-186 262h-19l-184 -262h-103z" />
<glyph unicode="&#xfc;" horiz-adv-x="1007" d="M129 350v588h100v-567q0 -72 7.5 -128.5t32 -95t67.5 -60t117 -21.5q49 0 101 13t100 35.5t91 51.5q10 6 23 14v758h100v-690l15 -248h-95l-10 86q-61 -41 -137 -68q-104 -41 -205 -41q-94 0 -154.5 24t-94 70t-46 116.5t-12.5 162.5zM280 1171v140h101v-140h-101z M614 1171v140h102v-140h-102z" />
<glyph unicode="&#xfd;" horiz-adv-x="858" d="M20 938h109l307 -801h19l284 801h105l-357 -989q-31 -86 -59.5 -161t-70.5 -129t-104.5 -85t-160.5 -31q-41 0 -65 8l12 87q14 -2 29.5 -4.5t33.5 -2.5q78 0 123 30t70 69q14 20 28.5 51t28 65.5t25.5 69.5t20 64zM407 1071l246 324h117l-254 -324h-109z" />
<glyph unicode="&#xfe;" horiz-adv-x="995" d="M139 0v1401l101 12v-545q61 41 122 64q72 29 166 29q199 0 291 -124t92 -360q0 -111 -24.5 -202t-78.5 -157.5t-138 -103.5t-205 -37q-39 0 -71 3.5t-62.5 12.5t-61.5 19q-23 10 -47 21l-8 -33h-76zM139 426l101 2v-872l-101 -13v883zM240 133q43 -27 92 -45 q63 -23 133 -22q174 0 258 100t84 319q0 70 -12.5 138.5t-45 124t-92 90t-151.5 34.5q-96 0 -164 -38q-53 -29 -102 -66v-635z" />
<glyph unicode="&#xff;" horiz-adv-x="858" d="M20 938h109l307 -801h19l284 801h105l-357 -989q-31 -86 -59.5 -161t-70.5 -129t-104.5 -85t-160.5 -31q-41 0 -65 8l12 87q14 -2 29.5 -4.5t33.5 -2.5q78 0 123 30t70 69q14 20 28.5 51t28 65.5t25.5 69.5t20 64zM213 1171v140h101v-140h-101zM547 1171v140h102v-140 h-102z" />
<glyph unicode="&#x152;" horiz-adv-x="1966" d="M84 682q0 354 137 521t434 167q141 0 236.5 -46t152.5 -136q12 -16 23 -37v199h770v-93h-668v-516h646v-92h-646v-559h691v-90h-793v219q-20 -39 -47 -69q-133 -172 -418 -173q-147 0 -245.5 48.5t-160 139.5t-87 220t-25.5 297zM190 659q0 -127 17.5 -234.5t63.5 -186 t125 -123.5t200 -45q135 0 226 40t145.5 116.5t77 194t22.5 273.5v35q-2 102 -18 195q-16 109 -62.5 187.5t-126.5 123.5t-203 45q-133 0 -223 -40t-144 -118t-77 -194.5t-23 -268.5z" />
<glyph unicode="&#x153;" horiz-adv-x="1681" d="M84 473q0 248 107.5 368t336.5 120q172 0 277 -113q45 -51 72 -127q84 240 358 240q109 0 180.5 -35t111.5 -95.5t55 -144.5t15 -182v-62h-669q0 -106 20 -176q20 -76 63.5 -120t103 -62t138.5 -18q94 0 174 26.5t121 46.5l35 -76q-20 -12 -58 -27.5t-84 -27.5 t-98.5 -21.5t-101.5 -9.5q-219 0 -311 115q-41 49 -62 125q-23 -61 -61 -111q-98 -129 -326 -129q-113 0 -189.5 34t-122.5 97.5t-65.5 154.5t-19.5 210zM188 457q0 -82 12.5 -153t45.5 -124t90 -83.5t145 -30.5q98 0 164 26.5t106 78.5t56 130t16 180q0 80 -12 150.5 t-46 124t-91.5 85t-145.5 31.5q-98 0 -163.5 -26.5t-104.5 -79.5t-55.5 -131t-16.5 -178zM928 530h565q0 100 -18.5 166t-53.5 106t-81 55t-103 15q-172 0 -242 -100q-57 -82 -67 -242z" />
<glyph unicode="&#x178;" horiz-adv-x="1062" d="M-4 1350h131l397 -641h17l403 641h123l-483 -758v-592h-103v590zM313 1581v140h101v-140h-101zM647 1581v140h102v-140h-102z" />
<glyph unicode="&#x2c6;" horiz-adv-x="1056" d="M229 1071l222 324h147l229 -324h-106l-186 262h-19l-184 -262h-103z" />
<glyph unicode="&#x2dc;" horiz-adv-x="1056" d="M229 1253q31 25 78 46.5t94 21.5q41 0 72 -10.5t58.5 -23.5t55 -23.5t58.5 -10.5q43 0 77 13.5t66 31.5l37 -69q-37 -29 -83 -46.5t-97 -17.5q-39 0 -70.5 9.5t-60.5 22.5t-55.5 23.5t-57.5 10.5q-37 0 -70.5 -14.5t-62.5 -32.5z" />
<glyph unicode="&#x2000;" horiz-adv-x="908" />
<glyph unicode="&#x2001;" horiz-adv-x="1817" />
<glyph unicode="&#x2002;" horiz-adv-x="908" />
<glyph unicode="&#x2003;" horiz-adv-x="1817" />
<glyph unicode="&#x2004;" horiz-adv-x="605" />
<glyph unicode="&#x2005;" horiz-adv-x="454" />
<glyph unicode="&#x2006;" horiz-adv-x="302" />
<glyph unicode="&#x2007;" horiz-adv-x="302" />
<glyph unicode="&#x2008;" horiz-adv-x="227" />
<glyph unicode="&#x2009;" horiz-adv-x="363" />
<glyph unicode="&#x200a;" horiz-adv-x="100" />
<glyph unicode="&#x2010;" horiz-adv-x="747" d="M129 432v90h489v-90h-489z" />
<glyph unicode="&#x2011;" horiz-adv-x="747" d="M129 432v90h489v-90h-489z" />
<glyph unicode="&#x2012;" horiz-adv-x="747" d="M129 432v90h489v-90h-489z" />
<glyph unicode="&#x2013;" horiz-adv-x="1097" d="M129 432v90h840v-90h-840z" />
<glyph unicode="&#x2014;" horiz-adv-x="1456" d="M129 432v90h1198v-90h-1198z" />
<glyph unicode="&#x2018;" horiz-adv-x="331" d="M131 1000q2 131 35 226t86 188l78 -41q-39 -84 -66.5 -171t-27.5 -202h-105z" />
<glyph unicode="&#x2019;" horiz-adv-x="331" d="M57 1034q39 84 66.5 171t27.5 202h105q-2 -131 -35 -226t-86 -188z" />
<glyph unicode="&#x201a;" horiz-adv-x="292" d="M6 -238q39 84 66.5 171t27.5 202h105q-2 -131 -35 -226t-86 -188z" />
<glyph unicode="&#x201c;" horiz-adv-x="671" d="M133 1000q2 131 35 226t86 188l78 -41q-39 -84 -66.5 -171t-27.5 -202h-105zM430 1000q2 131 35 226t86 188l78 -41q-39 -84 -66.5 -171t-27.5 -202h-105z" />
<glyph unicode="&#x201d;" horiz-adv-x="671" d="M96 1034q39 84 66.5 171t27.5 202h105q-2 -131 -35 -226t-86 -188zM395 1034q39 84 66.5 171t27.5 202h105q-2 -131 -35 -226t-86 -188z" />
<glyph unicode="&#x201e;" horiz-adv-x="671" d="M96 -238q39 84 66.5 171t27.5 202h105q-2 -131 -35 -226t-86 -188zM395 -238q39 84 66.5 171t27.5 202h105q-2 -131 -35 -226t-86 -188z" />
<glyph unicode="&#x2022;" horiz-adv-x="559" d="M84 543q0 41 15.5 76.5t42 62.5t62.5 42t75 15q41 0 76.5 -15t62 -42t42 -62.5t15.5 -76.5q0 -39 -15.5 -75t-42 -62.5t-62.5 -42t-76 -15.5q-39 0 -75 15.5t-62.5 42t-42 62.5t-15.5 75z" />
<glyph unicode="&#x2026;" horiz-adv-x="997" d="M82 0v135h133v-135h-133zM432 0v135h133v-135h-133zM782 0v135h133v-135h-133z" />
<glyph unicode="&#x202f;" horiz-adv-x="363" />
<glyph unicode="&#x2039;" horiz-adv-x="557" d="M29 469l338 403l65 -55l-289 -346l287 -346l-65 -59z" />
<glyph unicode="&#x203a;" horiz-adv-x="557" d="M178 121l289 346l-287 346l65 59l336 -403l-338 -403z" />
<glyph unicode="&#x205f;" horiz-adv-x="454" />
<glyph unicode="&#x20ac;" horiz-adv-x="1253" d="M61 518l35 92h168v64v71h-192l32 91h168q12 88 33 155q43 133 121 218t187.5 123t244.5 38q100 0 181 -23.5t141 -66.5l-33 -88q-53 39 -119.5 63.5t-167.5 24.5q-262 0 -377 -162q-76 -109 -102 -282h637l-33 -91h-612q-2 -45 -2 -90v-45h565l-33 -92h-526 q20 -178 98 -295q106 -154 350 -153q96 0 166 10t129 26v-90q-70 -16 -141.5 -27.5t-153.5 -11.5q-293 4 -428 177q-102 131 -127 364h-209z" />
<glyph unicode="&#x2122;" horiz-adv-x="1527" d="M0 1270v80h549v-80h-230v-621h-94v621h-225zM657 649v701h168l162 -449l53 -149h21l53 149l156 449h164v-701h-95v621h-16l-131 -369l-80 -229h-123l-86 229l-137 369h-16v-621h-93z" />
<glyph unicode="&#x25fc;" horiz-adv-x="942" d="M0 0v942h942v-942h-942z" />
</font>
</defs>
</svg>
