<?xml version="1.0" standalone="no"?>
<!DOCTYPE svg PUBLIC "-//W3C//DTD SVG 1.1//EN" "http://www.w3.org/Graphics/SVG/1.1/DTD/svg11.dtd" >
<svg xmlns="http://www.w3.org/2000/svg">
<metadata></metadata>
<defs>
<font id="lg_smartbold" horiz-adv-x="1153" >
<font-face units-per-em="2048" ascent="1466" descent="-582" />
<missing-glyph horiz-adv-x="479" />
<glyph unicode="&#xfb01;" horiz-adv-x="1163" d="M51 743v195h119v92q0 211 131 302t365 91q47 0 101 -3t107.5 -8t100.5 -13t82 -17v-245h-269v106q-61 8 -102 8q-70 0 -117 -17t-77.5 -47t-44 -67t-13.5 -78v-104h621v-938h-267v743h-354v-743h-264v743h-119z" />
<glyph unicode="&#xfb02;" horiz-adv-x="1183" d="M51 743v195h119v100q0 109 36 183.5t100.5 118.5t157.5 63.5t210 19.5q47 0 101 -3t106.5 -8t96.5 -13t77 -17v-1077q0 -41 5 -66.5t17.5 -39t32.5 -17.5t53 -4v-184q-12 -2 -22 -2q-12 -2 -25 -2h-22q-86 0 -145.5 20.5t-93.5 60.5t-49 97t-15 131v938q-29 6 -56 8 q-35 2 -57 2q-68 0 -115 -16.5t-75.5 -46t-41 -64.5t-12.5 -73v-109h234v-195h-234v-743h-264v743h-119z" />
<glyph horiz-adv-x="0" />
<glyph unicode="&#xd;" horiz-adv-x="454" />
<glyph horiz-adv-x="0" />
<glyph horiz-adv-x="0" />
<glyph unicode=" "  horiz-adv-x="479" />
<glyph unicode="&#x09;" horiz-adv-x="479" />
<glyph unicode="&#xa0;" horiz-adv-x="479" />
<glyph unicode="!" horiz-adv-x="565" d="M133 1350h299l-43 -965h-213zM150 0v250h268v-250h-268z" />
<glyph unicode="&#x22;" horiz-adv-x="954" d="M152 1407h249l-32 -563h-187zM553 1407h249l-32 -563h-187z" />
<glyph unicode="#" horiz-adv-x="1110" d="M131 272v179h152v188h-152v178h152v127h188v-127h166v127h188v-127h152v-178h-152v-188h152v-179h-152v-129h-188v129h-166v-129h-188v129h-152zM471 451h166v188h-166v-188z" />
<glyph unicode="$" horiz-adv-x="1107" d="M55 88l101 203q92 -45 182 -68q72 -16 151 -20v360q-80 29 -157 62q-63 31 -111.5 61.5t-79 72.5t-47 96t-16.5 130q0 176 131 277q104 80 280 98v184h150v-182q84 -4 180 -21q121 -20 217 -71l-94 -201q-63 35 -158 57q-70 18 -145 23v-358q88 -35 170 -72 q49 -25 94 -52.5t78 -67.5t51.5 -96.5t18.5 -135.5q0 -180 -138 -283q-106 -80 -274 -94v-172h-150v164q-94 6 -196 24q-125 25 -238 82zM348 1008q0 -68 42 -103t87 -53l12 -6v297q-55 -8 -86 -31q-55 -41 -55 -104zM639 211q55 10 86 33q59 45 59 108q0 29 -10 52.5 t-27.5 40t-35 27.5t-29.5 17q-23 10 -43 19v-297z" />
<glyph unicode="%" horiz-adv-x="1419" d="M29 1010q0 82 16 148.5t52 114.5t91.5 72.5t130.5 24.5q145 0 216 -98t71 -262q0 -162 -71 -261.5t-216 -99.5q-152 0 -221 99.5t-69 261.5zM100 -66l977 1481h232l-979 -1481h-230zM213 1010q0 -102 24.5 -157.5t81.5 -55.5t80 55.5t23 157.5t-22.5 159.5t-80.5 57.5 q-57 0 -81.5 -57.5t-24.5 -159.5zM846 338q0 82 16.5 148.5t52 113.5t91 72.5t131.5 25.5q145 0 214.5 -98t69.5 -262q0 -162 -69.5 -261.5t-214.5 -99.5q-152 0 -221.5 99.5t-69.5 261.5zM1030 338q0 -102 23.5 -157.5t83.5 -55.5q57 0 78.5 55.5t21.5 157.5 q0 100 -21.5 158.5t-78.5 58.5q-59 0 -83 -58.5t-24 -158.5z" />
<glyph unicode="&#x26;" horiz-adv-x="1263" d="M51 354q0 152 94 258q63 70 170 125q-29 37 -51 78q-27 45 -43 95.5t-16 101.5q0 84 30.5 150.5t85 113.5t130 70.5t163.5 23.5q82 0 155 -17.5t123 -56.5t81 -99t31 -148q0 -92 -38 -159t-99.5 -117t-141.5 -87q-23 -12 -43 -20l186 -213q27 45 50 96q45 94 69 180 l232 -47q-43 -121 -105 -248q-43 -82 -96 -155l246 -279h-314l-94 106q-47 -35 -98 -63q-117 -66 -269 -66q-96 0 -176 19.5t-139 62.5t-91 115t-32 180zM324 373q0 -96 52 -141.5t132 -45.5q88 0 166 52q20 14 41 30l-260 299q-29 -16 -54 -39q-33 -29 -55 -67.5t-22 -87.5 zM471 1016q0 -78 41 -144q14 -23 31 -47q12 5 20 9q53 23 92 49t61.5 61t22.5 84q0 66 -31.5 102.5t-89.5 36.5q-68 0 -107.5 -36.5t-39.5 -114.5z" />
<glyph unicode="'" horiz-adv-x="552" d="M152 1407h249l-32 -563h-187z" />
<glyph unicode="(" horiz-adv-x="741" d="M109 543q0 156 25.5 281.5t75.5 236t126 213t176 209.5l162 -133q-80 -92 -137.5 -179.5t-94 -183.5t-54 -204.5t-17.5 -239.5t17.5 -242t54 -209t94 -188t137.5 -178l-162 -134q-100 106 -176 211t-126 217.5t-75.5 240.5t-25.5 282z" />
<glyph unicode=")" horiz-adv-x="741" d="M66 -274q80 88 138 178t95 188t54.5 209t17.5 242t-17.5 239.5t-54.5 204.5t-95.5 183t-137.5 180l163 133q98 -106 175 -209t127.5 -213.5t76 -236t25.5 -281.5q0 -154 -25.5 -282t-76 -240.5t-127 -217t-175.5 -211.5z" />
<glyph unicode="*" horiz-adv-x="954" d="M45 928l80 266l258 -133l-43 289h274l-45 -287l260 131l80 -266l-284 -47l217 -213l-232 -156l-133 258l-133 -258l-233 156l213 213z" />
<glyph unicode="+" d="M131 436v211h332v336h225v-336h334v-211h-334v-332h-225v332h-332z" />
<glyph unicode="," horiz-adv-x="524" d="M33 -223q41 61 62.5 120.5t31.5 118t12 116.5t2 118h244q0 -100 -11.5 -181t-35 -151t-59 -129.5t-84.5 -118.5z" />
<glyph unicode="-" horiz-adv-x="749" d="M100 369v223h549v-223h-549z" />
<glyph unicode="." horiz-adv-x="524" d="M127 0v250h268v-250h-268z" />
<glyph unicode="/" horiz-adv-x="792" d="M0 -66l539 1481h254l-541 -1481h-252z" />
<glyph unicode="0" d="M49 674q0 158 31 287t95.5 220t163.5 140t239 49q137 0 235 -49t162.5 -140t95.5 -220.5t31 -286.5q0 -158 -31 -286t-95.5 -219t-162.5 -141.5t-235 -50.5q-139 0 -238.5 50.5t-164 141.5t-95.5 219t-31 286zM313 674q0 -223 62.5 -356.5t202.5 -133.5 q133 0 195.5 132.5t62.5 357.5t-62.5 358t-195.5 133q-70 0 -120 -34.5t-82 -99t-47.5 -156t-15.5 -201.5z" />
<glyph unicode="1" d="M160 1130l444 220h180v-1350h-270v1096l-274 -131z" />
<glyph unicode="2" d="M76 1241q119 66 236.5 97.5t230.5 31.5q104 0 194 -19.5t157 -64.5t104.5 -119.5t37.5 -185.5q0 -68 -21.5 -129t-56 -118.5t-82 -110t-96.5 -99.5l-321 -315h618v-209h-989v143l496 492q98 94 132 175t34 161q0 49 -18.5 85t-51.5 60.5t-74 36.5t-88 12 q-92 0 -180 -27.5t-176 -78.5z" />
<glyph unicode="3" d="M57 141l138 170q57 -45 146 -79.5t191 -34.5q55 0 104.5 12t85.5 36.5t57.5 64.5t21.5 93q0 96 -71 147.5t-198 51.5q-72 0 -109.5 -8t-60.5 -14l-10 221h94q43 0 97.5 8t102.5 29.5t80 58.5t32 94q0 92 -61.5 131t-153.5 39q-88 0 -174 -29.5t-154 -76.5l-104 176 q68 51 187.5 95t270.5 44q106 0 193.5 -17.5t150 -59.5t96 -108.5t33.5 -162.5q0 -47 -18 -91t-49 -80t-69 -64.5t-79 -43.5q113 -41 190 -119.5t77 -222.5q0 -111 -42 -190.5t-117 -130.5t-176 -77t-220 -26q-154 0 -280 46.5t-202 117.5z" />
<glyph unicode="4" d="M33 279v151l495 920h412v-873h178v-198h-178v-279h-270v279h-637zM309 477h361v664h-19z" />
<glyph unicode="5" d="M80 158l145 168q68 -59 144.5 -96t173.5 -37q121 0 187.5 56t66.5 171q0 68 -30 114t-80 73.5t-116.5 38.5t-140.5 11h-260v693h815v-203h-543v-289h33q121 0 231.5 -17.5t191.5 -63.5t128 -126t47 -205q0 -121 -39 -207.5t-110.5 -145t-170 -87.5t-218.5 -29 q-154 0 -264.5 50.5t-190.5 130.5z" />
<glyph unicode="6" d="M76 607q0 186 34.5 329.5t110.5 239.5t196 146.5t285 50.5q92 0 169 -15.5t145 -42.5l-62 -194q-98 43 -233 43q-123 0 -195.5 -44t-111.5 -121t-51 -177q-2 -6 -3 -15q43 25 99 41q84 25 162 25q221 0 337.5 -104.5t116.5 -319.5q0 -102 -31.5 -187.5t-95 -148.5 t-157 -98t-211.5 -35q-121 0 -215.5 32.5t-159 107.5t-97 195t-32.5 292zM350 598q0 -83 8 -157q8 -80 33 -137.5t71 -91t120 -33.5q221 0 221 253q0 100 -60.5 163t-166.5 63q-68 0 -136 -21q-47 -12 -90 -39z" />
<glyph unicode="7" d="M72 1145v205h1011v-140l-493 -1210h-285l471 1145h-704z" />
<glyph unicode="8" d="M53 365q0 66 21.5 122t55.5 100t80 73.5t91 41.5q-82 33 -145.5 108t-63.5 198q0 172 127 267t356 95q227 0 355.5 -95t128.5 -267q0 -59 -18.5 -109.5t-47 -88.5t-67.5 -65t-78 -43q47 -12 92 -41.5t81 -73.5t56.5 -100.5t20.5 -121.5q0 -197 -140.5 -292.5 t-382.5 -95.5q-240 0 -381 95.5t-141 292.5zM344 385q0 -100 59.5 -154.5t171.5 -54.5q102 0 163 54.5t61 154.5q0 98 -60.5 151.5t-163.5 53.5q-113 0 -172 -53.5t-59 -151.5zM371 985q0 -90 53 -140t151 -50q92 0 144.5 50t52.5 140q0 88 -52 138.5t-145 50.5 q-98 0 -151 -50.5t-53 -138.5z" />
<glyph unicode="9" d="M76 901q0 102 31.5 187.5t95 148.5t157 98t211.5 35q121 0 215.5 -32.5t159 -107.5t97 -195t32.5 -292q0 -186 -34.5 -329.5t-110.5 -239.5t-196 -146.5t-285 -50.5q-92 0 -169 15.5t-145 42.5l62 194q98 -43 233 -43q123 0 195.5 44t111.5 121t51 177q2 6 3 15 q-43 -25 -99 -41q-84 -25 -162 -25q-221 0 -337.5 104.5t-116.5 319.5zM348 918q0 -100 60.5 -163t166.5 -63q68 0 136 21q47 12 90 39q0 83 -8 157q-8 80 -33 137.5t-71 91t-120 33.5q-221 0 -221 -253z" />
<glyph unicode=":" horiz-adv-x="524" d="M125 0v250h268v-250h-268zM125 688v250h268v-250h-268z" />
<glyph unicode=";" horiz-adv-x="524" d="M33 -223q41 61 62.5 120.5t31.5 118t12 116.5t2 118h244q0 -100 -11.5 -181t-35 -151t-59 -129.5t-84.5 -118.5zM135 688v250h268v-250h-268z" />
<glyph unicode="&#x3c;" d="M193 543l569 569l164 -149l-410 -408l414 -414l-168 -166z" />
<glyph unicode="=" d="M125 274v209h903v-209h-903zM125 604v207h903v-207h-903z" />
<glyph unicode="&#x3e;" d="M184 946l168 166l569 -568l-569 -569l-164 149l410 408z" />
<glyph unicode="?" horiz-adv-x="917" d="M51 1272q33 18 77 36.5t95 33t106.5 21.5t108.5 7q88 0 163 -16.5t131 -54t88 -97t32 -147.5q0 -84 -25.5 -141.5t-63.5 -101.5t-82 -80t-82 -75t-63.5 -84t-25.5 -112v-76h-242v127q0 106 47 175t103.5 121t102.5 99t46 107q0 63 -44 99t-142 36q-70 0 -142.5 -23.5 t-115.5 -52.5zM258 0v250h268v-250h-268z" />
<glyph unicode="@" horiz-adv-x="2072" d="M82 293q0 266 78 468t221 337t345 203.5t450 68.5q201 0 354 -41t258.5 -129t160 -230.5t54.5 -344.5q0 -127 -33 -243t-100.5 -204t-170 -138t-239.5 -50q-127 0 -209 63q-37 29 -61 72l-16 -19q-37 -37 -86.5 -66.5t-107.5 -46t-132 -16.5q-164 0 -243 96.5t-79 254.5 q0 313 162 473t467 160q43 0 89 -3.5t92 -11.5t88 -20.5t73 -26.5l-102 -516q-4 -18 -6.5 -39.5t-2.5 -42.5q0 -43 22 -73.5t73 -30.5q68 0 119 33.5t83.5 91t50 136.5t17.5 173q0 154 -37 257t-110.5 164.5t-183 87t-257.5 25.5q-401 0 -614 -221t-213 -651 q0 -154 36 -259.5t108.5 -169t175 -93t235.5 -29.5q104 0 190 13.5t191 39.5l57 -194q-100 -31 -209.5 -50.5t-232.5 -19.5q-385 0 -595 183.5t-210 578.5zM797 358q0 -96 33.5 -142t84.5 -46q66 0 127 43q41 29 74 80l103 479q-35 4 -70 4q-186 0 -269 -110.5t-83 -307.5z " />
<glyph unicode="A" horiz-adv-x="1335" d="M10 0l486 1350h358l471 -1350h-297l-115 350h-503l-113 -350h-287zM481 565h363l-170 576h-17z" />
<glyph unicode="B" horiz-adv-x="1241" d="M143 0v1350h539q106 0 190 -18.5t141.5 -58.5t89.5 -105.5t32 -157.5q0 -98 -53.5 -173t-145.5 -116q102 -37 170 -118t68 -204q0 -106 -37 -182t-98.5 -123t-145.5 -70.5t-178 -23.5h-572zM406 211h266q43 0 83 9t68.5 29.5t46 57.5t17.5 94q0 59 -16.5 97.5t-46 62 t-68.5 32.5t-82 9h-268v-391zM406 803h264q82 0 133 43t51 125q0 51 -15.5 83.5t-41 51t-59 26t-70.5 7.5h-262v-336z" />
<glyph unicode="C" horiz-adv-x="1249" d="M92 674q0 348 164 522t467 174q61 0 126.5 -10t128 -33.5t118 -60.5t96.5 -86l-160 -156q-55 66 -129 99.5t-172 33.5q-358 0 -358 -502q0 -448 354 -448h2q109 0 205 25.5t180 62.5l62 -209q-86 -49 -213 -79t-250 -30q-332 0 -476.5 180.5t-144.5 516.5z" />
<glyph unicode="D" horiz-adv-x="1376" d="M143 0v1350h439q166 0 297 -37t221 -118t136 -211t46 -314q0 -188 -57.5 -317.5t-158.5 -206t-238.5 -111.5t-299.5 -35h-385zM416 211h102q113 0 201 23.5t150.5 78t95 147.5t32.5 232q0 229 -112.5 337t-309.5 108h-159v-926z" />
<glyph unicode="E" horiz-adv-x="1140" d="M143 0v1350h869v-213h-596v-338h575v-209h-575v-377h618v-213h-891z" />
<glyph unicode="F" horiz-adv-x="1058" d="M143 0v1350h848v-213h-575v-338h534v-209h-534v-590h-273z" />
<glyph unicode="G" horiz-adv-x="1380" d="M92 674q0 346 179.5 521t496.5 175q150 0 280 -46t220 -153l-166 -147q-57 63 -138 102t-192 39q-197 0 -299 -131t-102 -379q0 -231 104.5 -348t296.5 -117q59 0 123 7q43 8 86 18v317h-281v207h545v-669q-98 -45 -222 -69t-267 -24q-344 0 -504 181.5t-160 515.5z" />
<glyph unicode="H" horiz-adv-x="1386" d="M143 0v1350h273v-568h555v568h272v-1350h-272v567h-555v-567h-273z" />
<glyph unicode="I" horiz-adv-x="559" d="M143 0v1350h273v-1350h-273z" />
<glyph unicode="J" horiz-adv-x="761" d="M-10 25l33 196q43 -10 88 -16t75 -6q76 0 118 44t42 142v965h270v-942q0 -223 -96 -320.5t-313 -97.5q-49 0 -108.5 8t-108.5 27z" />
<glyph unicode="K" horiz-adv-x="1245" d="M143 0v1350h273v-572h98l438 572h303l-516 -656l504 -694h-321l-408 569h-98v-569h-273z" />
<glyph unicode="L" horiz-adv-x="978" d="M143 0v1350h273v-1137h551v-213h-824z" />
<glyph unicode="M" horiz-adv-x="1738" d="M143 0v1350h480l249 -1141h17l241 1141h465v-1350h-270v1141h-18l-256 -1141h-359l-260 1141h-16v-1141h-273z" />
<glyph unicode="N" horiz-adv-x="1492" d="M143 0v1350h469l449 -1141h16v1141h273v-1350h-469l-449 1141h-16v-1141h-273z" />
<glyph unicode="O" horiz-adv-x="1415" d="M92 682q0 346 157 517t480 171q166 0 278.5 -48t182.5 -139t101.5 -222.5t31.5 -292.5q0 -344 -157.5 -517.5t-481.5 -173.5q-168 0 -279.5 49.5t-181 141.5t-100.5 221t-31 293zM369 659q0 -98 14 -183t51 -148.5t95.5 -101.5t148.5 -38q104 0 175 34t112 97.5t58 157.5 t17 217q0 96 -14 181.5t-49 150t-94.5 102t-151.5 37.5q-100 0 -169.5 -33.5t-112.5 -98t-61.5 -159t-18.5 -215.5z" />
<glyph unicode="P" horiz-adv-x="1177" d="M143 0v1350h506q229 0 354 -104.5t125 -313.5q0 -104 -33.5 -187t-94 -139.5t-143.5 -87.5t-181 -31h-264v-487h-269zM412 698h221q39 0 78 12.5t68.5 40t49 72.5t19.5 109q0 59 -20.5 98t-51.5 63.5t-68.5 35t-74.5 10.5h-221v-441z" />
<glyph unicode="Q" horiz-adv-x="1413" d="M92 678q0 350 155.5 521t483.5 171q168 0 280.5 -48t181.5 -139t99.5 -222.5t30.5 -294.5q0 -207 -61.5 -341.5t-157.5 -211.5q-10 -8 -21 -17l275 -248l-209 -143l-291 293q-90 -20 -176 -21q-166 0 -277.5 48.5t-181 139.5t-100.5 220t-31 293zM369 657q0 -100 13 -186 t48 -149.5t94.5 -100.5t151.5 -37q106 0 177 32t112 96.5t58 159.5t17 220q0 98 -13 183.5t-46 150t-93.5 102t-152.5 37.5q-104 0 -175 -33.5t-114 -98t-60 -159t-17 -217.5z" />
<glyph unicode="R" horiz-adv-x="1222" d="M143 0v1350h529q229 0 354 -93.5t125 -302.5q0 -92 -26.5 -161.5t-73.5 -119.5t-115 -83q-14 -6 -31 -15l289 -575h-293l-262 532h-227v-532h-269zM412 741h250q39 0 77.5 11.5t67.5 35t47 65.5t18 101q0 53 -19 88t-50 56.5t-69 30t-72 8.5h-250v-396z" />
<glyph unicode="S" horiz-adv-x="1128" d="M66 88l100 203q94 -47 183 -70.5t188 -23.5q141 0 200.5 45t59.5 110q0 29 -11.5 52.5t-28 40t-35 27.5t-30.5 17q-80 39 -170 69t-178 67q-66 31 -113 61.5t-77.5 72.5t-48 96t-17.5 130q0 180 132 282.5t382 102.5q106 0 228 -23.5t217 -76.5l-93 -201 q-66 39 -157.5 63.5t-192.5 24.5q-131 0 -188.5 -41t-57.5 -108q0 -68 43 -103t86 -53q68 -29 160 -61.5t174 -69.5q49 -25 93 -52.5t77 -68.5t52.5 -97.5t19.5 -135.5q0 -180 -139.5 -285t-382.5 -105q-111 0 -236 27t-239 84z" />
<glyph unicode="T" horiz-adv-x="1087" d="M10 1137v213h1065v-213h-397v-1137h-270v1137h-398z" />
<glyph unicode="U" horiz-adv-x="1325" d="M127 551v799h270v-832q0 -156 56.5 -244t189.5 -88q156 0 220.5 83t64.5 284v797h270v-813q0 -147 -37 -253t-107.5 -173.5t-174 -100.5t-234.5 -33q-262 0 -390 134.5t-128 439.5z" />
<glyph unicode="V" horiz-adv-x="1224" d="M0 1350h291l330 -1139h18l309 1139h277l-422 -1350h-359z" />
<glyph unicode="W" horiz-adv-x="1894" d="M0 1350h293l244 -1139h18l201 1139h397l211 -1139h18l236 1139h276l-333 -1350h-387l-216 1141h-18l-205 -1141h-391z" />
<glyph unicode="X" horiz-adv-x="1255" d="M2 0l410 692l-381 658h315l268 -502h41l269 502h303l-383 -652l409 -698h-311l-299 549h-39l-301 -549h-301z" />
<glyph unicode="Y" horiz-adv-x="1234" d="M0 1350h311l299 -541h19l297 541h309l-483 -783v-567h-271v567q-55 88 -117.5 189.5t-125 205t-124 203t-114.5 185.5z" />
<glyph unicode="Z" horiz-adv-x="1161" d="M55 0v168l719 973h-670v209h1000v-170l-719 -969h717v-211h-1047z" />
<glyph unicode="[" horiz-adv-x="718" d="M80 -408v1811h557v-211h-291v-1391h291v-209h-557z" />
<glyph unicode="\" horiz-adv-x="792" d="M0 1415h252l541 -1481h-254z" />
<glyph unicode="]" horiz-adv-x="718" d="M82 -199h291v1391h-291v211h557v-1811h-557v209z" />
<glyph unicode="^" horiz-adv-x="950" d="M51 633l234 717h385l231 -717h-227l-189 536h-16l-178 -536h-240z" />
<glyph unicode="_" horiz-adv-x="874" d="M70 -88h735v-180h-735v180z" />
<glyph unicode="`" horiz-adv-x="1110" d="M262 1407h295l227 -324h-243z" />
<glyph unicode="a" horiz-adv-x="989" d="M55 274q0 94 30 152.5t85 92.5t133 47.5t174 13.5q31 0 69 -1t66 -4v43q0 76 -43 116t-139 40q-80 0 -152.5 -19.5t-132.5 -52.5l-53 162q76 41 184.5 69t221.5 28q111 0 183.5 -19.5t117.5 -66t63.5 -122t18.5 -188.5v-289q0 -57 22.5 -77.5t65.5 -20.5v-178 q-39 -8 -99 -8q-80 0 -132 22.5t-83 71.5q-51 -49 -130 -79t-148 -30q-104 0 -165.5 25t-97.5 67t-47.5 95t-11.5 110zM330 285q0 -61 23.5 -94t88.5 -33q35 0 84 14t86 49v178q-35 4 -68.5 5.5t-64.5 1.5q-84 0 -116.5 -32t-32.5 -89z" />
<glyph unicode="b" horiz-adv-x="1062" d="M106 0v1389l267 34v-518q29 16 57 27q82 29 176 29q201 0 296 -125t95 -338q0 -115 -23.5 -210t-77.5 -164t-141 -108t-210 -39q-66 0 -125 19q-51 14 -98 47l-19 -43h-197zM373 193q19 -9 33 -15q49 -16 92 -16q47 0 89 15.5t71.5 52t47 96t17.5 151.5q0 297 -207 297 q-63 0 -115 -31q-16 -8 -28 -22v-528z" />
<glyph unicode="c" horiz-adv-x="950" d="M70 455q0 256 129 381t379 125q106 0 196 -35t137 -92l-147 -142q-39 47 -85 65.5t-104 18.5q-121 0 -179 -73.5t-58 -247.5q0 -139 50 -216t177 -77q84 0 145.5 18.5t127.5 52.5l49 -170q-51 -35 -141.5 -60.5t-206.5 -25.5q-256 0 -362.5 122t-106.5 356z" />
<glyph unicode="d" horiz-adv-x="1081" d="M70 442q0 113 23.5 208t77.5 164t140 108t211 39q66 0 123 -19q25 -6 47 -14v461l266 34v-1171l19 -252h-227l-19 55q-45 -31 -96 -49q-80 -29 -174 -29q-203 0 -297 126t-94 339zM344 461q0 -297 207 -297q63 0 115 31q12 10 26 20v530q-16 11 -30 17q-49 14 -93 14 q-47 0 -89 -15.5t-71.5 -52t-47 -96t-17.5 -151.5z" />
<glyph unicode="e" horiz-adv-x="1017" d="M70 475q0 485 465 486q129 0 209.5 -35t125.5 -96.5t62.5 -144.5t17.5 -183v-96h-608q0 -96 37 -158q51 -82 203 -82q111 0 177 25.5t126 52.5l49 -166q-29 -18 -72 -34.5t-96 -32t-111.5 -25t-115.5 -9.5q-260 0 -364.5 126t-104.5 372zM344 580h330q0 98 -33 153 t-111 55q-61 0 -99 -19t-59.5 -57t-25.5 -94q-2 -16 -2 -38z" />
<glyph unicode="f" horiz-adv-x="729" d="M33 743v195h135v109q0 106 30.5 178.5t84 116.5t127 62.5t161.5 18.5q63 0 123 -8t109 -29l-55 -186q-63 29 -138 29q-98 0 -137 -42t-39 -126v-123h311v-195h-309v-743h-266v743h-137z" />
<glyph unicode="g" horiz-adv-x="1062" d="M70 434q0 117 22.5 213t75.5 166t142 109t222 39q63 0 115.5 -15.5t93.5 -34.5l9 27h206v-961q0 -123 -36.5 -207.5t-101 -138t-152.5 -77t-195 -23.5q-100 0 -182 16.5t-144 40.5l70 179q37 -12 99.5 -25.5t142.5 -13.5q106 0 169.5 45t63.5 157v80q-45 -14 -97 -23.5 t-108 -9.5q-219 0 -317 121t-98 336zM342 451q0 -129 51 -210t178 -81q27 0 56.5 2t62.5 14v586q-55 14 -108 14q-129 0 -184.5 -75.5t-55.5 -249.5z" />
<glyph unicode="h" horiz-adv-x="1054" d="M106 0v1389l267 34v-536q35 20 76 35q51 18 103 27t97 9q92 0 150.5 -23.5t94.5 -65.5t49 -101t13 -135v-633h-266v575q0 35 -3 67t-15.5 56.5t-38 39t-70.5 14.5q-63 0 -112 -17q-45 -18 -78 -41v-694h-267z" />
<glyph unicode="i" horiz-adv-x="483" d="M106 1137v213h271v-213h-271zM109 0v938h266v-938h-266z" />
<glyph unicode="j" horiz-adv-x="483" d="M-37 -276h21q78 0 101.5 36.5t23.5 135.5v1042h266v-1010q0 -113 -22.5 -189.5t-71 -122.5t-123 -65.5t-181.5 -19.5h-14v193zM106 1141v209h269v-209h-269z" />
<glyph unicode="k" horiz-adv-x="987" d="M106 0v1389l265 34v-817h67l281 332h293l-369 -428l381 -510h-295l-297 408h-61v-408h-265z" />
<glyph unicode="l" horiz-adv-x="501" d="M106 299v1090l265 34v-1118q0 -41 5 -66.5t17.5 -39t34 -17.5t51.5 -4v-184q-10 -2 -22 -2q-10 -2 -25 -2h-22q-86 0 -144.5 20.5t-93.5 60.5t-50.5 97t-15.5 131z" />
<glyph unicode="m" horiz-adv-x="1550" d="M90 938h248l4 -64q41 31 88 50q92 37 186 37q92 0 150 -25q53 -20 84 -57q45 27 92 45q51 18 104.5 27.5t100.5 9.5q90 0 149.5 -24t93 -66t47 -102t13.5 -136v-633h-262v575q0 35 -3 68t-13.5 57.5t-34 39t-68.5 14.5q-63 0 -111 -17q-27 -12 -51 -24q4 -39 4 -80v-633 h-264v575q0 35 -2 68t-13 57.5t-34 39t-68 14.5q-66 0 -110 -17q-25 -12 -47 -24v-713h-264v686z" />
<glyph unicode="n" horiz-adv-x="1056" d="M90 938h248l6 -66q47 31 102 52q109 37 203 37q92 0 150.5 -24t94.5 -66t49 -102t13 -136v-633h-266v575q0 35 -3 68t-15.5 57.5t-38 39t-70.5 14.5q-63 0 -112 -17q-43 -16 -76 -39v-698h-266v686z" />
<glyph unicode="o" horiz-adv-x="1083" d="M70 473q0 244 117.5 366t373.5 122q131 0 217 -35t138.5 -98.5t75 -155.5t22.5 -209q0 -244 -120 -365t-376 -121q-129 0 -216 35t-139 99.5t-72.5 154.5t-20.5 207zM340 457q0 -61 7 -115.5t27.5 -95.5t54.5 -64.5t89 -23.5q131 0 178 82t47 241q0 61 -8 115.5 t-27.5 96.5t-55.5 65.5t-91 23.5q-129 0 -175 -83t-46 -242z" />
<glyph unicode="p" horiz-adv-x="1064" d="M90 938h227l19 -55q45 31 94 49q82 29 176 29q201 0 296 -125t95 -338q0 -115 -23.5 -210t-77.5 -164t-141 -108t-210 -39q-66 0 -125 19q-23 6 -45 14v-442l-266 -37v1155zM375 190q17 -8 31 -12q49 -16 92 -16q47 0 89 15.5t71.5 52t47 96t17.5 151.5q0 297 -207 297 q-63 0 -115 -31q-12 -8 -26 -20v-533z" />
<glyph unicode="q" horiz-adv-x="1062" d="M70 442q0 113 23.5 208t77.5 164t140 108t211 39q66 0 123 -19q51 -12 96 -41l15 37h200v-1370l-266 -37v498q-27 -12 -55 -23q-80 -29 -174 -29q-203 0 -297 126t-94 339zM344 461q0 -297 207 -297q63 0 115 31q10 10 24 18v535l-28 14q-49 14 -93 14q-47 0 -89 -15.5 t-71.5 -52t-47 -96t-17.5 -151.5z" />
<glyph unicode="r" horiz-adv-x="772" d="M82 938h246l14 -100q35 45 78 69q90 53 190 54q53 0 93 -10.5t67 -20.5l-61 -209q-49 29 -121 29q-76 0 -144 -37q-37 -18 -67 -54v-659h-266v672z" />
<glyph unicode="s" horiz-adv-x="913" d="M59 49l80 187q57 -31 133 -49.5t170 -18.5q74 0 115 19.5t41 64.5q0 61 -125 100q-43 12 -88 25.5t-82 23.5q-47 16 -90 37t-75 52.5t-49 74.5t-17 103q0 147 109.5 220t297.5 73q119 0 207 -18.5t166 -51.5l-78 -186q-59 33 -135 51t-160 18q-76 0 -116.5 -19.5 t-40.5 -58.5q0 -33 30.5 -54.5t96.5 -39.5q12 -6 34.5 -12t48 -14.5t49 -15.5t40.5 -11q47 -14 90 -33.5t74.5 -51.5t50 -76t18.5 -109q0 -150 -108.5 -226t-301.5 -76q-127 0 -217 20.5t-168 51.5z" />
<glyph unicode="t" horiz-adv-x="829" d="M25 743v172l157 19v180l267 47v-223h321v-195h-321v-385q0 -35 3 -66.5t15 -56t36.5 -39t67.5 -14.5q57 0 104.5 12.5t90.5 34.5l41 -176q-143 -76 -322 -76q-90 0 -149.5 24t-92 66t-46 102t-13.5 134v440h-159z" />
<glyph unicode="u" horiz-adv-x="1046" d="M100 305v633h267v-576q0 -39 3 -70.5t14 -56t35.5 -39t67.5 -14.5q66 0 111 17q41 16 74 39v700h266v-686l18 -252h-245l-11 63q-45 -29 -102 -47q-102 -39 -199 -39q-90 0 -148 24t-91 66t-46.5 103t-13.5 135z" />
<glyph unicode="v" horiz-adv-x="983" d="M0 938h285l198 -758h21l209 758h270l-321 -938h-349z" />
<glyph unicode="w" horiz-adv-x="1480" d="M10 938h279l145 -758h19l112 758h361l112 -758h19l147 758h264l-243 -938h-365l-110 758h-19l-117 -758h-370z" />
<glyph unicode="x" horiz-adv-x="980" d="M0 0l276 481l-272 457h291l178 -348h33l178 348h283l-273 -453l287 -485h-293l-188 367h-35l-186 -367h-279z" />
<glyph unicode="y" horiz-adv-x="964" d="M0 938h295l192 -635h21l186 635h271l-371 -1014q-33 -88 -69 -160.5t-88 -124t-122.5 -80t-173.5 -28.5q-33 0 -69.5 3t-67.5 13l33 179q37 -8 78 -9q70 0 106.5 21.5t54.5 48.5q25 31 49.5 92.5t47.5 120.5z" />
<glyph unicode="z" horiz-adv-x="925" d="M45 0v154l518 589h-493v195h811v-154l-523 -589h527v-195h-840z" />
<glyph unicode="{" horiz-adv-x="749" d="M33 432v217q66 10 108.5 52t42.5 133v348q0 94 28 151.5t77 90t114.5 43t141.5 10.5h153v-209h-28q-117 0 -167 -38t-50 -140v-306q0 -111 -41 -163t-129 -66v-20q82 -23 126 -71t44 -161v-307q0 -98 52 -132t165 -34h28v-209h-153q-74 0 -139.5 7t-114.5 38t-78 89.5 t-29 162.5v330q0 88 -43 132t-108 52z" />
<glyph unicode="|" horiz-adv-x="471" d="M133 -383v1856h205v-1856h-205z" />
<glyph unicode="}" horiz-adv-x="749" d="M51 -170h29q113 0 165 34t52 132v307q0 113 43 161t129 71v20q-90 14 -131 66.5t-41 162.5v306q0 102 -50 140t-167 38h-29v209h154q74 0 140.5 -10.5t115.5 -43t76.5 -90t27.5 -151.5v-348q0 -90 43 -132.5t109 -52.5v-217q-66 -8 -109 -52t-43 -132v-330 q0 -104 -28.5 -162.5t-77.5 -89.5t-114.5 -38t-139.5 -7h-154v209z" />
<glyph unicode="~" horiz-adv-x="980" d="M47 561q51 51 127 84t164 33q47 0 87 -9.5t76 -22.5t70.5 -23.5t73.5 -10.5q57 0 107.5 19.5t95.5 50.5l84 -156q-51 -51 -128 -85.5t-165 -34.5q-51 0 -90 11t-73 23.5t-68.5 23.5t-75.5 11q-57 0 -108.5 -20.5t-94.5 -51.5z" />
<glyph unicode="&#xa1;" horiz-adv-x="565" d="M133 -410l43 963h213l43 -963h-299zM150 688v250h268v-250h-268z" />
<glyph unicode="&#xa2;" horiz-adv-x="952" d="M45 455q0 231 107.5 354t312.5 145v172h149v-168q90 -10 166 -43.5t117 -80.5l-149 -142q-57 63 -134 78v-606q57 6 107.5 23.5t101.5 43.5l45 -165q-43 -29 -106.5 -50.5t-147.5 -33.5v-170h-149v168q-227 12 -323.5 132.5t-96.5 342.5zM313 455q0 -117 34 -189.5 t118 -95.5v594q-76 -25 -114 -98.5t-38 -210.5z" />
<glyph unicode="&#xa3;" horiz-adv-x="1024" d="M76 0v182q82 61 113.5 141t31.5 220v6h-141v194h141v207q0 119 36 199t98.5 130t148.5 70.5t190 20.5q143 0 258 -43l-73 -186q-43 16 -85 24.5t-85 8.5q-119 0 -168 -52.5t-49 -158.5v-220h382v-194h-382v-6q0 -125 -29 -200t-105 -130h578v-213h-860z" />
<glyph unicode="&#xa4;" horiz-adv-x="1013" d="M35 233l145 144q-8 14 -14 29q-25 66 -25 139q0 76 27 141l12 25l-145 145l158 162l151 -154q10 6 21 10q68 27 147 27q80 0 145 -29q4 -2 11 -4l149 150l162 -162l-150 -145q6 -14 13 -29q27 -66 26.5 -138.5t-30.5 -137.5q-4 -12 -11 -25l152 -148l-162 -157l-151 149 q-8 -4 -21 -8q-66 -27 -145 -27q-80 0 -148 27q-4 2 -10 4l-149 -145zM369 543q0 -63 37 -104.5t94 -41.5q63 0 103 41t40 111q0 63 -37 103t-94 40q-63 0 -103 -40t-40 -109z" />
<glyph unicode="&#xa5;" horiz-adv-x="1234" d="M0 1350h311l299 -541h19l297 541h309l-356 -578h235v-149h-330l-32 -56v-63h362v-150h-362v-354h-271v354h-358v150h358v63q-18 27 -37 56h-321v149h229q-55 92 -114 189q-61 104 -123 203.5t-115 185.5z" />
<glyph unicode="&#xa6;" horiz-adv-x="471" d="M133 344h205v-727h-205v727zM133 745v728h205v-728h-205z" />
<glyph unicode="&#xa7;" horiz-adv-x="1081" d="M84 459q0 166 127 252q20 12 41 24q-53 35 -86 74q-57 72 -57 209q0 164 119.5 258t349.5 94q94 0 206.5 -20.5t198.5 -67.5l-84 -186q-57 33 -142 55.5t-177 22.5q-121 0 -173.5 -37t-52.5 -99q0 -61 39 -93t80 -48q61 -27 144 -57.5t159 -65.5q47 -23 87 -49.5t70 -65 t47 -91t17 -124.5q0 -168 -125 -251q-23 -14 -45 -27q53 -33 86 -76q61 -68 62 -205q0 -164 -122 -259t-347 -95q-98 0 -210 21.5t-198 68.5l84 186q57 -33 142.5 -55t179.5 -22q119 0 170 36.5t51 98.5q0 61 -39 94t-78 49q-59 25 -144 54.5t-161 66.5q-45 23 -85 49.5 t-70.5 63.5t-47 90t-16.5 127zM326 492q0 -61 29.5 -98.5t66.5 -53.5q74 -35 156 -64q20 -6 45 -14q49 12 75 37q55 51 56 111q0 63 -30 99t-65 54q-74 33 -155 60q-25 10 -49 18q-47 -12 -76 -39q-53 -49 -53 -110z" />
<glyph unicode="&#xa8;" horiz-adv-x="1110" d="M217 1137v213h260v-213h-260zM631 1137v213h258v-213h-258z" />
<glyph unicode="&#xa9;" horiz-adv-x="1628" d="M92 674q0 168 53.5 296t150.5 218t229 136t290 46q156 0 288 -46t229.5 -136t150.5 -218t53 -296q0 -166 -53 -295t-150.5 -218t-229.5 -136.5t-288 -47.5q-158 0 -290 47.5t-229 136.5t-150.5 218t-53.5 295zM266 674q0 -121 38 -221.5t107.5 -172t172 -110.5t231.5 -39 q127 0 228.5 39t172 110.5t108.5 172t38 221.5q0 123 -38 222t-108.5 171t-172 112t-228.5 40q-129 0 -231.5 -40t-172 -112t-107.5 -171t-38 -222zM438 666q0 199 102.5 297t301.5 98q84 0 154.5 -27.5t107.5 -72.5l-117 -113q-29 37 -66.5 51t-82.5 14q-94 0 -141.5 -57 t-47.5 -190q0 -100 46 -164t136 -64q68 0 115 15.5t101 42.5l38 -134q-41 -31 -111.5 -50t-164.5 -19q-195 0 -283 99.5t-88 273.5z" />
<glyph unicode="&#xab;" horiz-adv-x="1097" d="M33 469l338 403l174 -137l-219 -264l217 -258l-174 -147zM479 469l352 403l175 -137l-232 -264l234 -258l-179 -147z" />
<glyph unicode="&#xad;" horiz-adv-x="749" d="M100 369v223h549v-223h-549z" />
<glyph unicode="&#xae;" horiz-adv-x="1060" d="M59 997q0 111 36 195t98.5 142.5t148.5 90t188 31.5t188.5 -31.5t150 -90t98 -142.5t34.5 -195q0 -109 -34.5 -193.5t-98 -142t-149.5 -89t-189 -31.5q-102 0 -188 31.5t-148.5 89t-98.5 142.5t-36 193zM172 997q0 -160 96.5 -258t261.5 -98q168 0 262.5 98t94.5 258 t-94.5 259.5t-262.5 99.5q-84 0 -149.5 -26.5t-112.5 -74t-71.5 -113t-24.5 -145.5zM336 756v491h213q90 0 140 -35.5t50 -115.5q0 -51 -22.5 -84t-59.5 -51l107 -205h-154l-94 182h-39v-182h-141zM477 1038h66q20 0 34.5 13.5t14.5 44.5q0 29 -15.5 38t-33.5 9h-66v-105z " />
<glyph unicode="&#xaf;" horiz-adv-x="1110" d="M221 1143v198h658v-198h-658z" />
<glyph unicode="&#xb0;" horiz-adv-x="720" d="M23 1057q0 143 94 228t258 85q84 0 145.5 -23.5t101.5 -67.5t58 -101.5t18 -126.5q0 -139 -95 -225.5t-259 -86.5q-84 0 -145.5 24.5t-100.5 66.5t-57 99.5t-18 127.5zM223 1051q0 -49 27.5 -88t95.5 -39q80 0 116 34.5t36 100.5q0 51 -28 90t-95 39q-80 0 -116 -38 t-36 -99z" />
<glyph unicode="&#xb2;" horiz-adv-x="645" d="M35 1282q72 43 146.5 60.5t131.5 17.5q115 0 192 -44t77 -163q0 -68 -48.5 -127t-103.5 -111l-129 -118h293v-142h-543v93l260 249q37 39 53.5 68t16.5 61q0 39 -22.5 66t-71.5 27q-80 0 -191 -58z" />
<glyph unicode="&#xb3;" horiz-adv-x="645" d="M35 735l84 111q37 -27 83 -41t93 -14q49 0 81 19t32 62q0 37 -34 58.5t-89 21.5q-29 0 -46.5 -1t-48.5 -7v129h68q18 0 42 5t44.5 14.5t33.5 23.5t13 37q0 35 -31.5 51.5t-66.5 16.5q-53 0 -94 -14.5t-80 -41.5l-64 119q41 31 109.5 54.5t150.5 23.5q117 0 188.5 -42 t71.5 -144q0 -51 -33.5 -86t-80.5 -50q61 -18 101 -62t40 -114q0 -111 -87 -167t-216 -56q-82 0 -148.5 24.5t-115.5 69.5z" />
<glyph unicode="&#xb4;" horiz-adv-x="1110" d="M319 1083l230 324h295l-281 -324h-244z" />
<glyph unicode="&#xb5;" horiz-adv-x="1056" d="M100 -455v1393h267v-576q0 -37 3 -68.5t15 -56t36.5 -39t67.5 -14.5q59 0 104.5 14.5t78.5 37.5q4 2 10 4v698h266v-686l17 -252h-246l-8 59q-106 -80 -252 -79q-63 0 -111 16l19 -451h-267z" />
<glyph unicode="&#xb6;" horiz-adv-x="1257" d="M70 889q0 113 20.5 197.5t72.5 143t139 89.5t216 31h596v-1782l-182 -25v1598h-162v-1573l-182 -25v912h-115q-123 0 -201.5 33.5t-123 92t-61.5 137.5t-17 171z" />
<glyph unicode="&#xb7;" horiz-adv-x="524" d="M127 418v250h268v-250h-268z" />
<glyph unicode="&#xb8;" horiz-adv-x="1110" d="M293 -430l57 143q35 -10 64.5 -16t64.5 -6q51 0 80 18.5t29 57.5q0 27 -9.5 45t-29 28t-54 17.5t-83.5 15.5l47 125q184 -10 278 -58.5t94 -170.5q0 -123 -76.5 -178.5t-242.5 -55.5q-61 0 -121.5 10.5t-97.5 24.5z" />
<glyph unicode="&#xb9;" horiz-adv-x="645" d="M76 1231l252 121h125v-697h-181v523l-139 -64z" />
<glyph unicode="&#xbb;" horiz-adv-x="1097" d="M90 725l179 147l350 -403l-352 -403l-175 137l232 264zM553 203l219 264l-217 258l174 147l336 -403l-338 -403z" />
<glyph unicode="&#xbd;" horiz-adv-x="1419" d="M96 1233l252 121h125v-699h-180v525l-139 -64zM100 -66l977 1481h232l-979 -1481h-230zM862 629q72 41 146.5 58.5t132.5 17.5q115 0 191.5 -44.5t76.5 -160.5q0 -70 -48 -128.5t-104 -109.5l-129 -121h293v-141h-542v92l260 252q37 37 53 65.5t16 63.5q0 37 -22.5 63.5 t-71.5 26.5q-80 0 -190 -57z" />
<glyph unicode="&#xbf;" horiz-adv-x="917" d="M65 -117q0 84 25.5 141.5t63.5 101.5t82 80t82 75t63.5 84t25.5 112v76h242v-127q0 -106 -47 -175t-103.5 -121t-102.5 -99t-46 -107q0 -63 44 -99t142 -36q70 0 142.5 23.5t115.5 52.5l72 -199q-33 -18 -77 -36.5t-95 -33t-106.5 -21.5t-108.5 -7q-88 0 -163 16.5 t-131 54t-88 97t-32 147.5zM391 688v250h268v-250h-268z" />
<glyph unicode="&#xc0;" horiz-adv-x="1335" d="M10 0l486 1350h358l471 -1350h-297l-115 350h-503l-113 -350h-287zM325 1819h295l227 -324h-243zM481 565h363l-170 576h-17z" />
<glyph unicode="&#xc1;" horiz-adv-x="1335" d="M10 0l486 1350h358l471 -1350h-297l-115 350h-503l-113 -350h-287zM481 565h363l-170 576h-17zM507 1495l230 324h295l-281 -324h-244z" />
<glyph unicode="&#xc2;" horiz-adv-x="1335" d="M10 0l486 1350h358l471 -1350h-297l-115 350h-503l-113 -350h-287zM303 1493l215 324h330l207 -324h-232l-133 191h-22l-142 -191h-223zM481 565h363l-170 576h-17z" />
<glyph unicode="&#xc3;" horiz-adv-x="1335" d="M10 0l486 1350h358l471 -1350h-297l-115 350h-503l-113 -350h-287zM283 1670q45 49 112.5 82.5t145.5 33.5q43 0 78 -10t65.5 -23.5t61 -23.5t65.5 -10q51 0 95 20.5t85 48.5l72 -153q-43 -49 -110.5 -82t-145.5 -33q-45 0 -79 9t-65.5 22.5t-61 24t-64.5 10.5 q-51 0 -96.5 -19.5t-83.5 -48.5zM481 565h363l-170 576h-17z" />
<glyph unicode="&#xc4;" horiz-adv-x="1335" d="M10 0l486 1350h358l471 -1350h-297l-115 350h-503l-113 -350h-287zM330 1547v213h260v-213h-260zM481 565h363l-170 576h-17zM744 1547v213h258v-213h-258z" />
<glyph unicode="&#xc5;" horiz-adv-x="1335" d="M10 0l486 1350h358l471 -1350h-297l-115 350h-503l-113 -350h-287zM420 1673q0 106 66.5 165.5t193.5 59.5q133 0 186.5 -65.5t53.5 -161.5q0 -106 -66.5 -165.5t-193.5 -59.5q-133 0 -186.5 64.5t-53.5 162.5zM481 565h363l-170 576h-17zM580 1673q0 -88 86 -88 q92 0 92 88q0 84 -84 84q-94 0 -94 -84z" />
<glyph unicode="&#xc6;" horiz-adv-x="1916" d="M-23 0l801 1350h1010v-213h-608l20 -338h567v-209h-557l21 -377h579v-213h-835l-19 350h-497l-203 -350h-279zM582 565h366l-30 572h-17z" />
<glyph unicode="&#xc7;" horiz-adv-x="1249" d="M92 674q0 348 164 522t467 174q61 0 126.5 -10t128 -33.5t118 -60.5t96.5 -86l-160 -156q-55 66 -129 99.5t-172 33.5q-358 0 -358 -502q0 -449 356 -448q109 0 205 25.5t180 62.5l62 -209q-86 -49 -213 -79t-250 -30q-332 0 -476.5 180.5t-144.5 516.5zM410 -430l57 143 q35 -10 64.5 -16t64.5 -6q51 0 80 18.5t29 57.5q0 27 -9.5 45t-29 28t-54 17.5t-83.5 15.5l47 125q184 -10 278 -58.5t94 -170.5q0 -123 -76.5 -178.5t-242.5 -55.5q-61 0 -121.5 10.5t-97.5 24.5z" />
<glyph unicode="&#xc8;" horiz-adv-x="1140" d="M143 0v1350h869v-213h-596v-338h575v-209h-575v-377h618v-213h-891zM217 1819h295l227 -324h-243z" />
<glyph unicode="&#xc9;" horiz-adv-x="1140" d="M143 0v1350h869v-213h-596v-338h575v-209h-575v-377h618v-213h-891zM421 1495l230 324h295l-281 -324h-244z" />
<glyph unicode="&#xca;" horiz-adv-x="1140" d="M143 0v1350h869v-213h-596v-338h575v-209h-575v-377h618v-213h-891zM213 1493l215 324h330l207 -324h-232l-133 191h-22l-142 -191h-223z" />
<glyph unicode="&#xcb;" horiz-adv-x="1140" d="M143 0v1350h869v-213h-596v-338h575v-209h-575v-377h618v-213h-891zM246 1516v213h260v-213h-260zM660 1516v213h258v-213h-258z" />
<glyph unicode="&#xcc;" horiz-adv-x="559" d="M-80 1819h295l227 -324h-243zM143 0v1350h273v-1350h-273z" />
<glyph unicode="&#xcd;" horiz-adv-x="559" d="M137 1495l230 324h295l-281 -324h-244zM143 0v1350h273v-1350h-273z" />
<glyph unicode="&#xce;" horiz-adv-x="559" d="M-92 1493l215 324h330l207 -324h-232l-133 191h-22l-142 -191h-223zM143 0v1350h273v-1350h-273z" />
<glyph unicode="&#xcf;" horiz-adv-x="559" d="M-53 1516v213h260v-213h-260zM143 0v1350h273v-1350h-273zM361 1516v213h258v-213h-258z" />
<glyph unicode="&#xd0;" horiz-adv-x="1402" d="M33 569v211h682v-211h-682zM170 0v1350h438q166 0 297 -37t221.5 -118t136.5 -211t46 -314q0 -188 -57.5 -317.5t-159 -206t-238.5 -111.5t-299 -35h-385zM442 211h103q113 0 201 23.5t150 78t95 147.5t33 232q0 229 -112.5 337t-309.5 108h-160v-926z" />
<glyph unicode="&#xd1;" horiz-adv-x="1492" d="M143 0v1350h469l449 -1141h16v1141h273v-1350h-469l-449 1141h-16v-1141h-273zM379 1678q45 49 112.5 82.5t145.5 33.5q43 0 78 -10t65.5 -23.5t61 -23.5t65.5 -10q51 0 95 20.5t85 48.5l72 -153q-43 -49 -110.5 -82t-145.5 -33q-45 0 -79 9t-65.5 22.5t-61 24 t-64.5 10.5q-51 0 -96.5 -19.5t-83.5 -48.5z" />
<glyph unicode="&#xd2;" horiz-adv-x="1415" d="M92 682q0 346 157 517t480 171q166 0 278.5 -48t182.5 -139t101.5 -222.5t31.5 -292.5q0 -344 -157.5 -517.5t-481.5 -173.5q-168 0 -279.5 49.5t-181 141.5t-100.5 221t-31 293zM369 659q0 -98 14 -183t51 -148.5t95.5 -101.5t148.5 -38q104 0 175 34t112 97.5t58 157.5 t17 217q0 96 -14 181.5t-49 150t-94.5 102t-151.5 37.5q-100 0 -169.5 -33.5t-112.5 -98t-61.5 -159t-18.5 -215.5zM371 1819h295l227 -324h-243z" />
<glyph unicode="&#xd3;" horiz-adv-x="1415" d="M92 682q0 346 157 517t480 171q166 0 278.5 -48t182.5 -139t101.5 -222.5t31.5 -292.5q0 -344 -157.5 -517.5t-481.5 -173.5q-168 0 -279.5 49.5t-181 141.5t-100.5 221t-31 293zM369 659q0 -98 14 -183t51 -148.5t95.5 -101.5t148.5 -38q104 0 175 34t112 97.5t58 157.5 t17 217q0 96 -14 181.5t-49 150t-94.5 102t-151.5 37.5q-100 0 -169.5 -33.5t-112.5 -98t-61.5 -159t-18.5 -215.5zM507 1495l230 324h295l-281 -324h-244z" />
<glyph unicode="&#xd4;" horiz-adv-x="1415" d="M92 682q0 346 157 517t480 171q166 0 278.5 -48t182.5 -139t101.5 -222.5t31.5 -292.5q0 -344 -157.5 -517.5t-481.5 -173.5q-168 0 -279.5 49.5t-181 141.5t-100.5 221t-31 293zM336 1493l215 324h330l207 -324h-232l-133 191h-22l-142 -191h-223zM369 659 q0 -98 14 -183t51 -148.5t95.5 -101.5t148.5 -38q104 0 175 34t112 97.5t58 157.5t17 217q0 96 -14 181.5t-49 150t-94.5 102t-151.5 37.5q-100 0 -169.5 -33.5t-112.5 -98t-61.5 -159t-18.5 -215.5z" />
<glyph unicode="&#xd5;" horiz-adv-x="1415" d="M92 682q0 346 157 517t480 171q166 0 278.5 -48t182.5 -139t101.5 -222.5t31.5 -292.5q0 -344 -157.5 -517.5t-481.5 -173.5q-168 0 -279.5 49.5t-181 141.5t-100.5 221t-31 293zM328 1670q45 49 112.5 82.5t145.5 33.5q43 0 78 -10t65.5 -23.5t61 -23.5t65.5 -10 q51 0 95 20.5t85 48.5l72 -153q-43 -49 -110.5 -82t-145.5 -33q-45 0 -79 9t-65.5 22.5t-61 24t-64.5 10.5q-51 0 -96.5 -19.5t-83.5 -48.5zM369 659q0 -98 14 -183t51 -148.5t95.5 -101.5t148.5 -38q104 0 175 34t112 97.5t58 157.5t17 217q0 96 -14 181.5t-49 150 t-94.5 102t-151.5 37.5q-100 0 -169.5 -33.5t-112.5 -98t-61.5 -159t-18.5 -215.5z" />
<glyph unicode="&#xd6;" horiz-adv-x="1415" d="M92 682q0 346 157 517t480 171q166 0 278.5 -48t182.5 -139t101.5 -222.5t31.5 -292.5q0 -344 -157.5 -517.5t-481.5 -173.5q-168 0 -279.5 49.5t-181 141.5t-100.5 221t-31 293zM369 659q0 -98 14 -183t51 -148.5t95.5 -101.5t148.5 -38q104 0 175 34t112 97.5t58 157.5 t17 217q0 96 -14 181.5t-49 150t-94.5 102t-151.5 37.5q-100 0 -169.5 -33.5t-112.5 -98t-61.5 -159t-18.5 -215.5zM375 1516v213h260v-213h-260zM789 1516v213h258v-213h-258z" />
<glyph unicode="&#xd7;" d="M109 244l299 299l-299 303l165 166l301 -301l302 301l165 -166l-301 -303l301 -299l-165 -166l-302 299l-301 -299z" />
<glyph unicode="&#xd8;" horiz-adv-x="1415" d="M66 -12l143 192q-59 86 -86 205q-31 131 -31 293q0 350 157 523t480 173q166 0 279 -49q16 -10 32 -18l127 170l162 -107l-139 -188q70 -90 101.5 -221.5t31.5 -294.5q0 -344 -157.5 -519.5t-481.5 -175.5q-168 0 -281 49q-27 12 -51 27l-123 -166zM356 657 q0 -98 15 -186q4 -29 10 -55l526 710q-6 9 -12 13q-63 39 -164 39q-100 0 -172 -35t-117 -101.5t-65.5 -165t-20.5 -219.5zM487 231q14 -12 29 -20q66 -41 162 -41q104 0 176 36t116 102.5t62.5 162.5t18.5 221q0 96 -13 185q-4 41 -18 77z" />
<glyph unicode="&#xd9;" horiz-adv-x="1325" d="M127 551v799h270v-832q0 -156 56.5 -244t189.5 -88q156 0 220.5 83t64.5 284v797h270v-813q0 -147 -37 -253t-107.5 -173.5t-174 -100.5t-234.5 -33q-262 0 -390 134.5t-128 439.5zM305 1819h295l227 -324h-243z" />
<glyph unicode="&#xda;" horiz-adv-x="1325" d="M127 551v799h270v-832q0 -156 56.5 -244t189.5 -88q156 0 220.5 83t64.5 284v797h270v-813q0 -147 -37 -253t-107.5 -173.5t-174 -100.5t-234.5 -33q-262 0 -390 134.5t-128 439.5zM485 1495l230 324h295l-281 -324h-244z" />
<glyph unicode="&#xdb;" horiz-adv-x="1325" d="M127 551v799h270v-832q0 -156 56.5 -244t189.5 -88q156 0 220.5 83t64.5 284v797h270v-813q0 -147 -37 -253t-107.5 -173.5t-174 -100.5t-234.5 -33q-262 0 -390 134.5t-128 439.5zM282 1493l215 324h330l207 -324h-232l-133 191h-22l-142 -191h-223z" />
<glyph unicode="&#xdc;" horiz-adv-x="1325" d="M127 551v799h270v-832q0 -156 56.5 -244t189.5 -88q156 0 220.5 83t64.5 284v797h270v-813q0 -147 -37 -253t-107.5 -173.5t-174 -100.5t-234.5 -33q-262 0 -390 134.5t-128 439.5zM328 1516v213h260v-213h-260zM742 1516v213h258v-213h-258z" />
<glyph unicode="&#xdd;" horiz-adv-x="1234" d="M0 1350h311l299 -541h19l297 541h309l-483 -783v-567h-271v567q-55 88 -117.5 189.5t-125 205t-124 203t-114.5 185.5zM462 1495l230 324h295l-281 -324h-244z" />
<glyph unicode="&#xde;" horiz-adv-x="1177" d="M143 0v1350h269v-236h237q229 0 354 -105.5t125 -314.5q0 -104 -33.5 -187t-94 -139.5t-143.5 -87t-181 -30.5h-264v-250h-269zM412 461h221q39 0 78 12t68.5 40t49 73t19.5 108q0 59 -20.5 98t-51.5 64t-68.5 35t-74.5 10h-221v-440z" />
<glyph unicode="&#xdf;" horiz-adv-x="1171" d="M104 0v883q0 270 133.5 394t387.5 124q78 0 153.5 -20.5t134 -59.5t95 -98.5t36.5 -139.5q0 -61 -24.5 -107t-63 -83t-84 -63.5t-88.5 -49.5q-37 -25 -54 -42t-17 -48t20.5 -49t59.5 -35q29 -12 72.5 -28.5t74.5 -28.5q98 -45 142 -102t44 -168q0 -145 -98 -220t-278 -75 q-102 0 -181.5 16t-142.5 47l72 182q51 -27 112.5 -45t132.5 -18q63 0 101.5 21.5t38.5 64.5q0 35 -23.5 60.5t-81.5 45.5q-27 12 -65.5 26.5t-55.5 21.5q-37 14 -71.5 34.5t-62 51t-45 71.5t-17.5 96q0 39 8 75t27.5 69t55.5 65.5t91 63.5q59 33 94 66.5t35 86.5 q0 31 -14.5 54.5t-38 38t-52 20.5t-57.5 6q-68 0 -113.5 -23.5t-73.5 -63.5t-41 -93t-13 -113v-911h-265z" />
<glyph unicode="&#xe0;" horiz-adv-x="989" d="M55 274q0 94 30 152.5t85 92.5t133 47.5t174 13.5q31 0 69 -1t66 -4v43q0 76 -43 116t-139 40q-80 0 -152.5 -19.5t-132.5 -52.5l-53 162q76 41 184.5 69t221.5 28q111 0 183.5 -19.5t117.5 -66t63.5 -122t18.5 -188.5v-289q0 -57 22.5 -77.5t65.5 -20.5v-178 q-39 -8 -99 -8q-80 0 -132 22.5t-83 71.5q-51 -49 -130 -79t-148 -30q-104 0 -165.5 25t-97.5 67t-47.5 95t-11.5 110zM190 1407h295l227 -324h-243zM330 285q0 -61 23.5 -94t88.5 -33q35 0 84 14t86 49v178q-35 4 -68.5 5.5t-64.5 1.5q-84 0 -116.5 -32t-32.5 -89z" />
<glyph unicode="&#xe1;" horiz-adv-x="989" d="M55 274q0 94 30 152.5t85 92.5t133 47.5t174 13.5q31 0 69 -1t66 -4v43q0 76 -43 116t-139 40q-80 0 -152.5 -19.5t-132.5 -52.5l-53 162q76 41 184.5 69t221.5 28q111 0 183.5 -19.5t117.5 -66t63.5 -122t18.5 -188.5v-289q0 -57 22.5 -77.5t65.5 -20.5v-178 q-39 -8 -99 -8q-80 0 -132 22.5t-83 71.5q-51 -49 -130 -79t-148 -30q-104 0 -165.5 25t-97.5 67t-47.5 95t-11.5 110zM311 1083l230 324h295l-281 -324h-244zM330 285q0 -61 23.5 -94t88.5 -33q35 0 84 14t86 49v178q-35 4 -68.5 5.5t-64.5 1.5q-84 0 -116.5 -32t-32.5 -89 z" />
<glyph unicode="&#xe2;" horiz-adv-x="989" d="M55 274q0 94 30 152.5t85 92.5t133 47.5t174 13.5q31 0 69 -1t66 -4v43q0 76 -43 116t-139 40q-80 0 -152.5 -19.5t-132.5 -52.5l-53 162q76 41 184.5 69t221.5 28q111 0 183.5 -19.5t117.5 -66t63.5 -122t18.5 -188.5v-289q0 -57 22.5 -77.5t65.5 -20.5v-178 q-39 -8 -99 -8q-80 0 -132 22.5t-83 71.5q-51 -49 -130 -79t-148 -30q-104 0 -165.5 25t-97.5 67t-47.5 95t-11.5 110zM127 1083l215 324h330l207 -324h-232l-133 191h-22l-142 -191h-223zM330 285q0 -61 23.5 -94t88.5 -33q35 0 84 14t86 49v178q-35 4 -68.5 5.5t-64.5 1.5 q-84 0 -116.5 -32t-32.5 -89z" />
<glyph unicode="&#xe3;" horiz-adv-x="989" d="M55 274q0 94 30 152.5t85 92.5t133 47.5t174 13.5q31 0 69 -1t66 -4v43q0 76 -43 116t-139 40q-80 0 -152.5 -19.5t-132.5 -52.5l-53 162q76 41 184.5 69t221.5 28q111 0 183.5 -19.5t117.5 -66t63.5 -122t18.5 -188.5v-289q0 -57 22.5 -77.5t65.5 -20.5v-178 q-39 -8 -99 -8q-80 0 -132 22.5t-83 71.5q-51 -49 -130 -79t-148 -30q-104 0 -165.5 25t-97.5 67t-47.5 95t-11.5 110zM111 1260q45 49 112.5 82.5t145.5 33.5q43 0 78 -10t65.5 -23.5t61 -23.5t65.5 -10q51 0 95 20.5t85 48.5l72 -153q-43 -49 -110.5 -82t-145.5 -33 q-45 0 -79 9t-65.5 22.5t-61 24t-64.5 10.5q-51 0 -96.5 -19.5t-83.5 -48.5zM330 285q0 -61 23.5 -94t88.5 -33q35 0 84 14t86 49v178q-35 4 -68.5 5.5t-64.5 1.5q-84 0 -116.5 -32t-32.5 -89z" />
<glyph unicode="&#xe4;" horiz-adv-x="989" d="M55 274q0 94 30 152.5t85 92.5t133 47.5t174 13.5q31 0 69 -1t66 -4v43q0 76 -43 116t-139 40q-80 0 -152.5 -19.5t-132.5 -52.5l-53 162q76 41 184.5 69t221.5 28q111 0 183.5 -19.5t117.5 -66t63.5 -122t18.5 -188.5v-289q0 -57 22.5 -77.5t65.5 -20.5v-178 q-39 -8 -99 -8q-80 0 -132 22.5t-83 71.5q-51 -49 -130 -79t-148 -30q-104 0 -165.5 25t-97.5 67t-47.5 95t-11.5 110zM170 1137v213h260v-213h-260zM330 285q0 -61 23.5 -94t88.5 -33q35 0 84 14t86 49v178q-35 4 -68.5 5.5t-64.5 1.5q-84 0 -116.5 -32t-32.5 -89z M584 1137v213h258v-213h-258z" />
<glyph unicode="&#xe5;" horiz-adv-x="989" d="M55 274q0 94 30 152.5t85 92.5t133 47.5t174 13.5q31 0 69 -1t66 -4v43q0 76 -43 116t-139 40q-80 0 -152.5 -19.5t-132.5 -52.5l-53 162q76 41 184.5 69t221.5 28q111 0 183.5 -19.5t117.5 -66t63.5 -122t18.5 -188.5v-289q0 -57 22.5 -77.5t65.5 -20.5v-178 q-39 -8 -99 -8q-80 0 -132 22.5t-83 71.5q-51 -49 -130 -79t-148 -30q-104 0 -165.5 25t-97.5 67t-47.5 95t-11.5 110zM266 1243q0 106 66.5 165.5t193.5 59.5q133 0 186.5 -65.5t53.5 -161.5q0 -106 -66.5 -165.5t-193.5 -59.5q-133 0 -186.5 64.5t-53.5 162.5zM330 285 q0 -61 23.5 -94t88.5 -33q35 0 84 14t86 49v178q-35 4 -68.5 5.5t-64.5 1.5q-84 0 -116.5 -32t-32.5 -89zM426 1243q0 -88 86 -88q92 0 92 88q0 84 -84 84q-94 0 -94 -84z" />
<glyph unicode="&#xe6;" horiz-adv-x="1562" d="M55 274q0 90 31 147.5t87 90.5t134 46t176 13h138v43q0 76 -46.5 118t-142.5 42q-82 0 -154.5 -19.5t-132.5 -52.5l-55 162q78 41 188.5 69t221.5 28q109 0 177 -25t111 -72q102 96 297 97q125 0 204 -35t125 -96.5t62.5 -144.5t16.5 -183v-96h-610q2 -117 56 -178.5 t185 -61.5q113 0 179.5 25.5t128.5 52.5l51 -166q-29 -18 -74 -34.5t-98.5 -32t-111.5 -25t-116 -9.5q-233 0 -340 93q-53 -33 -137 -63t-205 -30q-96 0 -162.5 26t-107.5 68t-58.5 95t-17.5 108zM328 285q0 -51 31 -88t92 -37q57 0 109 16.5t91 42.5q-10 39 -15 85t-11 102 h-146q-84 0 -117.5 -32t-33.5 -89zM885 569h338q0 106 -33 162.5t-117 56.5q-106 0 -146 -56t-42 -163z" />
<glyph unicode="&#xe7;" horiz-adv-x="952" d="M70 455q0 256 129 381t379 125q106 0 196 -35t137 -92l-147 -142q-39 47 -85 65.5t-104 18.5q-121 0 -179 -73.5t-58 -247.5q0 -139 50 -216t177 -77q84 0 145.5 18.5t127.5 52.5l49 -170q-51 -35 -141.5 -60.5t-206.5 -25.5q-256 0 -362.5 122t-106.5 356zM244 -430 l57 143q35 -10 64.5 -16t64.5 -6q51 0 80 18.5t29 57.5q0 27 -9.5 45t-29 28t-54 17.5t-83.5 15.5l47 125q184 -10 278 -58.5t94 -170.5q0 -123 -76.5 -178.5t-242.5 -55.5q-61 0 -121.5 10.5t-97.5 24.5z" />
<glyph unicode="&#xe8;" horiz-adv-x="1017" d="M70 475q0 485 465 486q129 0 209.5 -35t125.5 -96.5t62.5 -144.5t17.5 -183v-96h-608q0 -96 37 -158q51 -82 203 -82q111 0 177 25.5t126 52.5l49 -166q-29 -18 -72 -34.5t-96 -32t-111.5 -25t-115.5 -9.5q-260 0 -364.5 126t-104.5 372zM205 1407h295l227 -324h-243z M344 580h330q0 98 -33 153t-111 55q-61 0 -99 -19t-59.5 -57t-25.5 -94q-2 -16 -2 -38z" />
<glyph unicode="&#xe9;" horiz-adv-x="1017" d="M70 475q0 485 465 486q129 0 209.5 -35t125.5 -96.5t62.5 -144.5t17.5 -183v-96h-608q0 -96 37 -158q51 -82 203 -82q111 0 177 25.5t126 52.5l49 -166q-29 -18 -72 -34.5t-96 -32t-111.5 -25t-115.5 -9.5q-260 0 -364.5 126t-104.5 372zM344 580h330q0 98 -33 153 t-111 55q-61 0 -99 -19t-59.5 -57t-25.5 -94q-2 -16 -2 -38zM350 1083l230 324h295l-281 -324h-244z" />
<glyph unicode="&#xea;" horiz-adv-x="1017" d="M70 475q0 485 465 486q129 0 209.5 -35t125.5 -96.5t62.5 -144.5t17.5 -183v-96h-608q0 -96 37 -158q51 -82 203 -82q111 0 177 25.5t126 52.5l49 -166q-29 -18 -72 -34.5t-96 -32t-111.5 -25t-115.5 -9.5q-260 0 -364.5 126t-104.5 372zM158 1083l215 324h330l207 -324 h-232l-133 191h-22l-142 -191h-223zM344 580h330q0 98 -33 153t-111 55q-61 0 -99 -19t-59.5 -57t-25.5 -94q-2 -16 -2 -38z" />
<glyph unicode="&#xeb;" horiz-adv-x="1017" d="M70 475q0 485 465 486q129 0 209.5 -35t125.5 -96.5t62.5 -144.5t17.5 -183v-96h-608q0 -96 37 -158q51 -82 203 -82q111 0 177 25.5t126 52.5l49 -166q-29 -18 -72 -34.5t-96 -32t-111.5 -25t-115.5 -9.5q-260 0 -364.5 126t-104.5 372zM197 1137v213h260v-213h-260z M344 580h330q0 98 -33 153t-111 55q-61 0 -99 -19t-59.5 -57t-25.5 -94q-2 -16 -2 -38zM611 1137v213h258v-213h-258z" />
<glyph unicode="&#xec;" horiz-adv-x="483" d="M-78 1407h295l227 -324h-243zM109 0v938h266v-938h-266z" />
<glyph unicode="&#xed;" horiz-adv-x="483" d="M38 1083l230 324h295l-281 -324h-244zM109 0v938h266v-938h-266z" />
<glyph unicode="&#xee;" horiz-adv-x="483" d="M-111 1094l193 323h330l184 -323h-219l-121 190h-23l-131 -190h-213zM109 0v938h266v-938h-266z" />
<glyph unicode="&#xef;" horiz-adv-x="483" d="M-53 1137v213h233v-213h-233zM109 0v938h266v-938h-266zM299 1137v213h231v-213h-231z" />
<glyph unicode="&#xf0;" horiz-adv-x="1085" d="M70 473q0 242 121.5 363.5t336.5 121.5q96 0 158 -30q6 -4 14 -6q-14 35 -34 69q-45 74 -127 131l-344 -159l-64 129l246 112q-111 39 -271 51l35 181q186 -20 346 -74q66 -20 123 -51l260 123l68 -127l-186 -86l14 -13q117 -100 183.5 -262t66.5 -395q0 -160 -32 -271.5 t-93.5 -179t-148 -97.5t-199.5 -30q-131 0 -220.5 35t-146.5 99.5t-81.5 156.5t-24.5 209zM340 457q0 -63 11 -117.5t35 -95.5t62.5 -64.5t94.5 -23.5q66 0 106.5 26.5t64 73.5t32 112.5t8.5 145.5q0 98 -9 195q-22 12 -51 26q-29 12 -63.5 21.5t-67.5 9.5q-125 0 -174 -76 t-49 -233z" />
<glyph unicode="&#xf1;" horiz-adv-x="1056" d="M90 938h248l6 -66q47 31 102 52q109 37 203 37q92 0 150.5 -24t94.5 -66t49 -102t13 -136v-633h-266v575q0 35 -3 68t-15.5 57.5t-38 39t-70.5 14.5q-63 0 -112 -17q-43 -16 -76 -39v-698h-266v686zM146 1260q45 49 112.5 82.5t145.5 33.5q43 0 78 -10t65.5 -23.5 t61 -23.5t65.5 -10q51 0 95 20.5t85 48.5l72 -153q-43 -49 -110.5 -82t-145.5 -33q-45 0 -79 9t-65.5 22.5t-61 24t-64.5 10.5q-51 0 -96.5 -19.5t-83.5 -48.5z" />
<glyph unicode="&#xf2;" horiz-adv-x="1083" d="M70 473q0 244 117.5 366t373.5 122q131 0 217 -35t138.5 -98.5t75 -155.5t22.5 -209q0 -244 -120 -365t-376 -121q-129 0 -216 35t-139 99.5t-72.5 154.5t-20.5 207zM237 1407h295l227 -324h-243zM340 457q0 -61 7 -115.5t27.5 -95.5t54.5 -64.5t89 -23.5q131 0 178 82 t47 241q0 61 -8 115.5t-27.5 96.5t-55.5 65.5t-91 23.5q-129 0 -175 -83t-46 -242z" />
<glyph unicode="&#xf3;" horiz-adv-x="1083" d="M70 473q0 244 117.5 366t373.5 122q131 0 217 -35t138.5 -98.5t75 -155.5t22.5 -209q0 -244 -120 -365t-376 -121q-129 0 -216 35t-139 99.5t-72.5 154.5t-20.5 207zM340 457q0 -61 7 -115.5t27.5 -95.5t54.5 -64.5t89 -23.5q131 0 178 82t47 241q0 61 -8 115.5 t-27.5 96.5t-55.5 65.5t-91 23.5q-129 0 -175 -83t-46 -242zM370 1083l230 324h295l-281 -324h-244z" />
<glyph unicode="&#xf4;" horiz-adv-x="1083" d="M70 473q0 244 117.5 366t373.5 122q131 0 217 -35t138.5 -98.5t75 -155.5t22.5 -209q0 -244 -120 -365t-376 -121q-129 0 -216 35t-139 99.5t-72.5 154.5t-20.5 207zM178 1083l215 324h330l207 -324h-232l-133 191h-22l-142 -191h-223zM340 457q0 -61 7 -115.5 t27.5 -95.5t54.5 -64.5t89 -23.5q131 0 178 82t47 241q0 61 -8 115.5t-27.5 96.5t-55.5 65.5t-91 23.5q-129 0 -175 -83t-46 -242z" />
<glyph unicode="&#xf5;" horiz-adv-x="1083" d="M70 473q0 244 117.5 366t373.5 122q131 0 217 -35t138.5 -98.5t75 -155.5t22.5 -209q0 -244 -120 -365t-376 -121q-129 0 -216 35t-139 99.5t-72.5 154.5t-20.5 207zM168 1260q45 49 112.5 82.5t145.5 33.5q43 0 78 -10t65.5 -23.5t61 -23.5t65.5 -10q51 0 95 20.5 t85 48.5l72 -153q-43 -49 -110.5 -82t-145.5 -33q-45 0 -79 9t-65.5 22.5t-61 24t-64.5 10.5q-51 0 -96.5 -19.5t-83.5 -48.5zM340 457q0 -61 7 -115.5t27.5 -95.5t54.5 -64.5t89 -23.5q131 0 178 82t47 241q0 61 -8 115.5t-27.5 96.5t-55.5 65.5t-91 23.5q-129 0 -175 -83 t-46 -242z" />
<glyph unicode="&#xf6;" horiz-adv-x="1083" d="M70 473q0 244 117.5 366t373.5 122q131 0 217 -35t138.5 -98.5t75 -155.5t22.5 -209q0 -244 -120 -365t-376 -121q-129 0 -216 35t-139 99.5t-72.5 154.5t-20.5 207zM211 1137v213h260v-213h-260zM340 457q0 -61 7 -115.5t27.5 -95.5t54.5 -64.5t89 -23.5q131 0 178 82 t47 241q0 61 -8 115.5t-27.5 96.5t-55.5 65.5t-91 23.5q-129 0 -175 -83t-46 -242zM625 1137v213h258v-213h-258z" />
<glyph unicode="&#xf7;" horiz-adv-x="1110" d="M115 438v209h876v-209h-876zM422 72v247h266v-247h-266zM422 768v250h266v-250h-266z" />
<glyph unicode="&#xf8;" horiz-adv-x="1083" d="M25 25l108 129q-35 61 -49 141t-14 178q0 248 117.5 369t373.5 121q63 0 116.5 -9.5t98.5 -25.5l107 129l174 -146l-109 -129q35 -61 50.5 -141t15.5 -178q0 -248 -120 -369t-376 -121q-66 0 -119 9.5t-98 23.5l-104 -125zM326 412q0 -18 2 -39l334 399q-40 25 -101 25 q-131 0 -183 -89.5t-52 -250.5v-45zM418 166q41 -25 100 -25q133 0 185.5 87t52.5 253v45q0 23 -2 41z" />
<glyph unicode="&#xf9;" horiz-adv-x="1046" d="M100 305v633h267v-576q0 -39 3 -70.5t14 -56t35.5 -39t67.5 -14.5q66 0 111 17q41 16 74 39v700h266v-686l18 -252h-245l-11 63q-45 -29 -102 -47q-102 -39 -199 -39q-90 0 -148 24t-91 66t-46.5 103t-13.5 135zM135 1407h295l227 -324h-243z" />
<glyph unicode="&#xfa;" horiz-adv-x="1046" d="M100 305v633h267v-576q0 -39 3 -70.5t14 -56t35.5 -39t67.5 -14.5q66 0 111 17q41 16 74 39v700h266v-686l18 -252h-245l-11 63q-45 -29 -102 -47q-102 -39 -199 -39q-90 0 -148 24t-91 66t-46.5 103t-13.5 135zM378 1083l230 324h295l-281 -324h-244z" />
<glyph unicode="&#xfb;" horiz-adv-x="1046" d="M100 305v633h267v-576q0 -39 3 -70.5t14 -56t35.5 -39t67.5 -14.5q66 0 111 17q41 16 74 39v700h266v-686l18 -252h-245l-11 63q-45 -29 -102 -47q-102 -39 -199 -39q-90 0 -148 24t-91 66t-46.5 103t-13.5 135zM149 1083l215 324h330l207 -324h-232l-133 191h-22 l-142 -191h-223z" />
<glyph unicode="&#xfc;" horiz-adv-x="1046" d="M100 305v633h267v-576q0 -39 3 -70.5t14 -56t35.5 -39t67.5 -14.5q66 0 111 17q41 16 74 39v700h266v-686l18 -252h-245l-11 63q-45 -29 -102 -47q-102 -39 -199 -39q-90 0 -148 24t-91 66t-46.5 103t-13.5 135zM188 1137v213h260v-213h-260zM602 1137v213h258v-213h-258 z" />
<glyph unicode="&#xfd;" horiz-adv-x="964" d="M0 938h295l192 -635h21l186 635h271l-371 -1014q-33 -88 -69 -160.5t-88 -124t-122.5 -80t-173.5 -28.5q-33 0 -69.5 3t-67.5 13l33 179q37 -8 78 -9q70 0 106.5 21.5t54.5 48.5q25 31 49.5 92.5t47.5 120.5zM339 1083l230 324h295l-281 -324h-244z" />
<glyph unicode="&#xfe;" horiz-adv-x="1064" d="M104 0v1389l267 34v-518q29 16 57 27q82 29 176 29q201 0 296 -125t95 -338q0 -115 -23.5 -210t-77.5 -164t-141 -108t-210 -39q-66 0 -125 19q-51 14 -99 47l-18 -43h-197zM104 -455v920h267v-887zM371 193q18 -9 32 -15q49 -16 93 -16q47 0 89 15.5t71.5 52t47 96 t17.5 151.5q0 297 -207 297q-63 0 -115 -31q-16 -8 -28 -22v-528z" />
<glyph unicode="&#xff;" horiz-adv-x="964" d="M0 938h295l192 -635h21l186 635h271l-371 -1014q-33 -88 -69 -160.5t-88 -124t-122.5 -80t-173.5 -28.5q-33 0 -69.5 3t-67.5 13l33 179q37 -8 78 -9q70 0 106.5 21.5t54.5 48.5q25 31 49.5 92.5t47.5 120.5zM156 1137v213h260v-213h-260zM570 1137v213h258v-213h-258z " />
<glyph unicode="&#x152;" horiz-adv-x="2033" d="M92 682q0 346 157 517t480 171q166 0 275 -47q31 -14 57 -33v60h846v-213h-598v-338h577v-209h-577v-377h618v-213h-866v70q-143 -92 -377 -93q-168 0 -279.5 49.5t-181 141.5t-100.5 221t-31 293zM369 659q0 -98 14 -183t51 -148.5t95.5 -101.5t148.5 -38q104 0 175 34 t112 97.5t58 157.5t17 217q0 96 -14 181.5t-49 150t-94.5 102t-151.5 37.5q-100 0 -169.5 -33.5t-112.5 -98t-61.5 -159t-18.5 -215.5z" />
<glyph unicode="&#x153;" horiz-adv-x="1693" d="M70 473q0 244 117.5 366t373.5 122q209 0 316 -113q104 113 331 113q129 0 210 -35t127 -96.5t62.5 -144.5t16.5 -183v-96h-608q0 -96 39 -158q49 -82 200 -82q111 0 177.5 25.5t128.5 52.5l47 -166q-29 -18 -72 -34.5t-96.5 -32t-111 -25t-114.5 -9.5q-131 0 -219 31 q-78 29 -127 84q-53 -53 -133 -82q-90 -33 -217 -33q-129 0 -216 35t-139 99.5t-72.5 154.5t-20.5 207zM340 457q0 -61 7 -115.5t27.5 -95.5t54.5 -64.5t89 -23.5q131 0 178 82t47 241q0 61 -8 115.5t-27.5 96.5t-55.5 65.5t-91 23.5q-129 0 -175 -83t-46 -242zM1018 580 h332q0 98 -34 153t-112 55q-61 0 -99 -19t-59.5 -57t-25.5 -94q-2 -16 -2 -38z" />
<glyph unicode="&#x178;" horiz-adv-x="1234" d="M0 1350h311l299 -541h19l297 541h309l-483 -783v-567h-271v567q-55 88 -117.5 189.5t-125 205t-124 203t-114.5 185.5zM283 1516v213h260v-213h-260zM697 1516v213h258v-213h-258z" />
<glyph unicode="&#x2c6;" horiz-adv-x="1110" d="M178 1083l215 324h330l207 -324h-232l-133 191h-22l-142 -191h-223z" />
<glyph unicode="&#x2dc;" horiz-adv-x="1110" d="M164 1260q45 49 112.5 82.5t145.5 33.5q43 0 78 -10t65.5 -23.5t61 -23.5t65.5 -10q51 0 95 20.5t85 48.5l72 -153q-43 -49 -110.5 -82t-145.5 -33q-45 0 -79 9t-65.5 22.5t-61 24t-64.5 10.5q-51 0 -96.5 -19.5t-83.5 -48.5z" />
<glyph unicode="&#x2000;" horiz-adv-x="949" />
<glyph unicode="&#x2001;" horiz-adv-x="1898" />
<glyph unicode="&#x2002;" horiz-adv-x="949" />
<glyph unicode="&#x2003;" horiz-adv-x="1898" />
<glyph unicode="&#x2004;" horiz-adv-x="632" />
<glyph unicode="&#x2005;" horiz-adv-x="474" />
<glyph unicode="&#x2006;" horiz-adv-x="316" />
<glyph unicode="&#x2007;" horiz-adv-x="316" />
<glyph unicode="&#x2008;" horiz-adv-x="237" />
<glyph unicode="&#x2009;" horiz-adv-x="379" />
<glyph unicode="&#x200a;" horiz-adv-x="105" />
<glyph unicode="&#x2010;" horiz-adv-x="749" d="M100 369v223h549v-223h-549z" />
<glyph unicode="&#x2011;" horiz-adv-x="749" d="M100 369v223h549v-223h-549z" />
<glyph unicode="&#x2012;" horiz-adv-x="749" d="M100 369v223h549v-223h-549z" />
<glyph unicode="&#x2013;" horiz-adv-x="1110" d="M102 395v209h904v-209h-904z" />
<glyph unicode="&#x2014;" horiz-adv-x="1662" d="M-2 395v209h1665v-209h-1665z" />
<glyph unicode="&#x2018;" horiz-adv-x="518" d="M96 844q0 100 11.5 181t35 151t59 129.5t84.5 118.5l162 -107q-41 -61 -62.5 -120.5t-31.5 -118t-12 -116.5t-2 -118h-244z" />
<glyph unicode="&#x2019;" horiz-adv-x="518" d="M70 932q41 61 62.5 120.5t31.5 118t12 116.5t2 118h244q0 -100 -11.5 -181t-35 -151t-59 -129.5t-84.5 -118.5z" />
<glyph unicode="&#x201a;" horiz-adv-x="524" d="M33 -223q41 61 62.5 120.5t31.5 118t12 116.5t2 118h244q0 -100 -11.5 -181t-35 -151t-59 -129.5t-84.5 -118.5z" />
<glyph unicode="&#x201c;" horiz-adv-x="929" d="M96 844q0 100 11.5 181t35 151t59 129.5t84.5 118.5l162 -107q-41 -61 -62.5 -120.5t-31.5 -118t-12 -116.5t-2 -118h-244zM506 844q0 100 11.5 181t35 151t59 129.5t84.5 118.5l162 -107q-41 -61 -62.5 -120.5t-31.5 -118t-12 -116.5t-2 -118h-244z" />
<glyph unicode="&#x201d;" horiz-adv-x="929" d="M70 932q41 61 62.5 120.5t31.5 118t12 116.5t2 118h244q0 -100 -11.5 -181t-35 -151t-59 -129.5t-84.5 -118.5zM459 932q41 61 62.5 120.5t31.5 118t12 116.5t2 118h244q0 -100 -11.5 -181t-35 -151t-59 -129.5t-84.5 -118.5z" />
<glyph unicode="&#x201e;" horiz-adv-x="907" d="M70 -223q41 61 62.5 120.5t31.5 118t12 116.5t2 118h244q0 -100 -11.5 -181t-35 -151t-59 -129.5t-84.5 -118.5zM459 -223q41 61 62.5 120.5t31.5 118t12 116.5t2 118h244q0 -100 -11.5 -181t-35 -151t-59 -129.5t-84.5 -118.5z" />
<glyph unicode="&#x2022;" horiz-adv-x="612" d="M57 528q0 104 68 172t180 68q115 0 182.5 -67.5t67.5 -172.5q0 -104 -67.5 -172.5t-182.5 -68.5q-113 0 -180.5 68.5t-67.5 172.5z" />
<glyph unicode="&#x2026;" horiz-adv-x="1511" d="M127 0v250h268v-250h-268zM623 0v250h268v-250h-268zM1120 0v250h269v-250h-269z" />
<glyph unicode="&#x202f;" horiz-adv-x="379" />
<glyph unicode="&#x2039;" horiz-adv-x="636" d="M33 469l338 403l174 -137l-219 -264l217 -258l-174 -147z" />
<glyph unicode="&#x203a;" horiz-adv-x="636" d="M92 203l219 264l-217 258l174 147l336 -403l-338 -403z" />
<glyph unicode="&#x205f;" horiz-adv-x="474" />
<glyph unicode="&#x20ac;" horiz-adv-x="1273" d="M18 455l54 149h139v70v49h-193l54 149h153q35 203 144 324q160 174 462 174q98 0 201 -26.5t185 -83.5l-82 -226q-57 57 -129 90t-164 33q-180 0 -267 -125q-45 -66 -67 -160h567l-55 -149h-533v-68v-51h492l-55 -149h-414q70 -250 340 -250q84 0 164 15.5t151 47.5v-237 q-78 -25 -165 -39.5t-171 -14.5q-330 0 -475 181q-92 115 -125 297h-211z" />
<glyph unicode="&#x2122;" horiz-adv-x="1566" d="M0 1202v148h604v-148h-201v-547h-200v547h-203zM676 655v695h303l41 -174l51 -275h23l51 275l37 174h299v-695h-183v246l13 287h-25l-55 -283l-55 -221h-195l-57 227l-56 277h-24l12 -287v-246h-180z" />
<glyph unicode="&#x25fc;" horiz-adv-x="942" d="M0 0v942h942v-942h-942z" />
</font>
</defs>
</svg>
